<?xml version="1.0" encoding="UTF-8"?>
<svg width="512px" height="512px" viewBox="0 0 512 512" version="1.1" xmlns="http://www.w3.org/2000/svg" xmlns:xlink="http://www.w3.org/1999/xlink">
    <!-- Generator: Sketch 51.3 (57544) - http://www.bohemiancoding.com/sketch -->
    <title>/static/images/icons/administration</title>
    <desc>Created with Sketch.</desc>
    <defs></defs>
    <g id="/static/images/icons/administration" stroke="none" stroke-width="1" fill="none" fill-rule="evenodd">
        <g id="015-admin" transform="translate(0.000000, 64.000000)" fill-rule="nonzero">
            <rect id="Rectangle-path" fill="#8E9AA9" x="7.515" y="7.64" width="256.501" height="80.157"></rect>
            <polygon id="Shape" fill="#7C899B" points="23.546 71.765 23.546 7.64 7.515 7.64 7.515 87.796 264.016 87.796 264.016 71.765"></polygon>
            <rect id="Rectangle-path" fill="#B8E3A8" x="151.796" y="31.687" width="88.172" height="32.063"></rect>
            <g id="Group" transform="translate(151.000000, 31.000000)" fill="#7EC97D">
                <polygon id="Shape" points="0.796 0.687 0.796 32.75 24.175 32.75 56.238 0.687"></polygon>
                <polygon id="Shape" points="74.941 0.687 42.879 32.75 88.969 32.75 88.969 0.687"></polygon>
            </g>
            <rect id="Rectangle-path" fill="#8E9AA9" x="7.515" y="151.922" width="256.501" height="80.157"></rect>
            <polygon id="Shape" fill="#7C899B" points="23.546 216.047 23.546 151.922 7.515 151.922 7.515 232.078 264.016 232.078 264.016 216.047"></polygon>
            <rect id="Rectangle-path" fill="#B8E3A8" x="151.796" y="175.969" width="88.172" height="32.063"></rect>
            <g id="Group" transform="translate(151.000000, 175.000000)" fill="#7EC97D">
                <polygon id="Shape" points="0.796 0.969 0.796 33.031 24.175 33.031 56.238 0.969"></polygon>
                <polygon id="Shape" points="74.941 0.969 42.879 33.031 88.969 33.031 88.969 0.969"></polygon>
            </g>
            <rect id="Rectangle-path" fill="#8E9AA9" x="7.515" y="296.204" width="256.501" height="80.157"></rect>
            <polygon id="Shape" fill="#7C899B" points="23.546 360.329 23.546 296.204 7.515 296.204 7.515 376.36 264.016 376.36 264.016 360.329"></polygon>
            <rect id="Rectangle-path" fill="#B8E3A8" x="151.796" y="320.25" width="88.172" height="32.063"></rect>
            <g id="Group" transform="translate(151.000000, 320.000000)" fill="#7EC97D">
                <polygon id="Shape" points="0.796 0.25 0.796 32.313 24.175 32.313 56.238 0.25"></polygon>
                <polygon id="Shape" points="74.941 0.25 42.879 32.313 88.969 32.313 88.969 0.25"></polygon>
            </g>
            <circle id="Oval" fill="#F7C14D" cx="424.329" cy="192" r="80.157"></circle>
            <circle id="Oval" fill="#FFDB66" cx="424.329" cy="192" r="64.125"></circle>
            <circle id="Oval" fill="#69788D" cx="424.329" cy="159.937" r="24.047"></circle>
            <path d="M440.36,175.969 C427.079,175.969 416.313,165.203 416.313,151.922 C416.313,145.803 418.602,140.221 422.366,135.977 C410.004,136.977 400.282,147.318 400.282,159.938 C400.282,173.219 411.048,183.985 424.329,183.985 C431.491,183.985 437.918,180.851 442.323,175.883 C441.675,175.935 441.021,175.969 440.36,175.969 Z" id="Shape" fill="#56677E"></path>
            <path d="M424.329,272.157 C444.738,272.157 463.353,264.517 477.504,251.958 C470.016,217.098 449.038,192 424.329,192 C399.62,192 378.642,217.099 371.154,251.957 C385.305,264.517 403.92,272.157 424.329,272.157 Z" id="Shape" fill="#69788D"></path>
            <path d="M436.796,194.202 C432.785,192.771 428.615,192 424.329,192 C399.62,192 378.642,217.099 371.154,251.957 C377.603,257.68 384.987,262.367 393.038,265.79 C400.203,229.415 416.663,201.932 436.796,194.202 Z" id="Shape" fill="#56677E"></path>
            <path d="M239.969,24.172 L151.797,24.172 C147.647,24.172 144.282,27.537 144.282,31.687 L144.282,63.75 C144.282,67.9 147.647,71.265 151.797,71.265 L239.969,71.265 C244.119,71.265 247.484,67.9 247.484,63.75 L247.484,31.687 C247.483,27.537 244.119,24.172 239.969,24.172 Z M232.454,56.235 L159.311,56.235 L159.311,39.202 L232.454,39.202 L232.454,56.235 Z" id="Shape" fill="#000000"></path>
            <path d="M31.562,24.172 C27.412,24.172 24.047,27.537 24.047,31.687 L24.047,63.75 C24.047,67.9 27.412,71.265 31.562,71.265 C35.712,71.265 39.077,67.9 39.077,63.75 L39.077,31.687 C39.076,27.537 35.712,24.172 31.562,24.172 Z" id="Shape" fill="#000000"></path>
            <path d="M55.609,24.172 C51.459,24.172 48.094,27.537 48.094,31.687 L48.094,63.75 C48.094,67.9 51.459,71.265 55.609,71.265 C59.759,71.265 63.124,67.9 63.124,63.75 L63.124,31.687 C63.123,27.537 59.759,24.172 55.609,24.172 Z" id="Shape" fill="#000000"></path>
            <path d="M79.656,24.172 C75.506,24.172 72.141,27.537 72.141,31.687 L72.141,63.75 C72.141,67.9 75.506,71.265 79.656,71.265 C83.806,71.265 87.171,67.9 87.171,63.75 L87.171,31.687 C87.17,27.537 83.806,24.172 79.656,24.172 Z" id="Shape" fill="#000000"></path>
            <path d="M103.703,24.172 C99.553,24.172 96.188,27.537 96.188,31.687 L96.188,63.75 C96.188,67.9 99.553,71.265 103.703,71.265 C107.853,71.265 111.218,67.9 111.218,63.75 L111.218,31.687 C111.217,27.537 107.853,24.172 103.703,24.172 Z" id="Shape" fill="#000000"></path>
            <path d="M127.75,24.172 C123.6,24.172 120.235,27.537 120.235,31.687 L120.235,32.689 C120.235,36.839 123.6,40.204 127.75,40.204 C131.9,40.204 135.265,36.839 135.265,32.689 L135.265,31.687 C135.264,27.537 131.9,24.172 127.75,24.172 Z" id="Shape" fill="#000000"></path>
            <path d="M127.75,55.233 C123.6,55.233 120.235,58.598 120.235,62.748 L120.235,63.75 C120.235,67.9 123.6,71.265 127.75,71.265 C131.9,71.265 135.265,67.9 135.265,63.75 L135.265,62.748 C135.264,58.597 131.9,55.233 127.75,55.233 Z" id="Shape" fill="#000000"></path>
            <path d="M239.969,168.454 L151.797,168.454 C147.647,168.454 144.282,171.819 144.282,175.969 L144.282,208.032 C144.282,212.182 147.647,215.547 151.797,215.547 L239.969,215.547 C244.119,215.547 247.484,212.182 247.484,208.032 L247.484,175.969 C247.483,171.819 244.119,168.454 239.969,168.454 Z M232.454,200.517 L159.311,200.517 L159.311,183.484 L232.454,183.484 L232.454,200.517 Z" id="Shape" fill="#000000"></path>
            <path d="M31.562,168.454 C27.412,168.454 24.047,171.819 24.047,175.969 L24.047,208.032 C24.047,212.182 27.412,215.547 31.562,215.547 C35.712,215.547 39.077,212.182 39.077,208.032 L39.077,175.969 C39.076,171.819 35.712,168.454 31.562,168.454 Z" id="Shape" fill="#000000"></path>
            <path d="M55.609,168.454 C51.459,168.454 48.094,171.819 48.094,175.969 L48.094,208.032 C48.094,212.182 51.459,215.547 55.609,215.547 C59.759,215.547 63.124,212.182 63.124,208.032 L63.124,175.969 C63.123,171.819 59.759,168.454 55.609,168.454 Z" id="Shape" fill="#000000"></path>
            <path d="M79.656,168.454 C75.506,168.454 72.141,171.819 72.141,175.969 L72.141,208.032 C72.141,212.182 75.506,215.547 79.656,215.547 C83.806,215.547 87.171,212.182 87.171,208.032 L87.171,175.969 C87.17,171.819 83.806,168.454 79.656,168.454 Z" id="Shape" fill="#000000"></path>
            <path d="M103.703,168.454 C99.553,168.454 96.188,171.819 96.188,175.969 L96.188,208.032 C96.188,212.182 99.553,215.547 103.703,215.547 C107.853,215.547 111.218,212.182 111.218,208.032 L111.218,175.969 C111.217,171.819 107.853,168.454 103.703,168.454 Z" id="Shape" fill="#000000"></path>
            <path d="M127.75,168.454 C123.6,168.454 120.235,171.819 120.235,175.969 L120.235,176.971 C120.235,181.121 123.6,184.486 127.75,184.486 C131.9,184.486 135.265,181.121 135.265,176.971 L135.265,175.969 C135.264,171.819 131.9,168.454 127.75,168.454 Z" id="Shape" fill="#000000"></path>
            <path d="M127.75,199.515 C123.6,199.515 120.235,202.88 120.235,207.03 L120.235,208.032 C120.235,212.182 123.6,215.547 127.75,215.547 C131.9,215.547 135.265,212.182 135.265,208.032 L135.265,207.03 C135.264,202.879 131.9,199.515 127.75,199.515 Z" id="Shape" fill="#000000"></path>
            <path d="M239.969,312.736 L151.797,312.736 C147.647,312.736 144.282,316.101 144.282,320.251 L144.282,352.314 C144.282,356.464 147.647,359.829 151.797,359.829 L239.969,359.829 C244.119,359.829 247.484,356.464 247.484,352.314 L247.484,320.25 C247.483,316.1 244.119,312.736 239.969,312.736 Z M232.454,344.798 L159.311,344.798 L159.311,327.765 L232.454,327.765 L232.454,344.798 Z" id="Shape" fill="#000000"></path>
            <path d="M31.562,312.736 C27.412,312.736 24.047,316.101 24.047,320.251 L24.047,352.314 C24.047,356.464 27.412,359.829 31.562,359.829 C35.712,359.829 39.077,356.464 39.077,352.314 L39.077,320.25 C39.076,316.1 35.712,312.736 31.562,312.736 Z" id="Shape" fill="#000000"></path>
            <path d="M55.609,312.736 C51.459,312.736 48.094,316.101 48.094,320.251 L48.094,352.314 C48.094,356.464 51.459,359.829 55.609,359.829 C59.759,359.829 63.124,356.464 63.124,352.314 L63.124,320.25 C63.123,316.1 59.759,312.736 55.609,312.736 Z" id="Shape" fill="#000000"></path>
            <path d="M79.656,312.736 C75.506,312.736 72.141,316.101 72.141,320.251 L72.141,352.314 C72.141,356.464 75.506,359.829 79.656,359.829 C83.806,359.829 87.171,356.464 87.171,352.314 L87.171,320.25 C87.17,316.1 83.806,312.736 79.656,312.736 Z" id="Shape" fill="#000000"></path>
            <path d="M103.703,312.736 C99.553,312.736 96.188,316.101 96.188,320.251 L96.188,352.314 C96.188,356.464 99.553,359.829 103.703,359.829 C107.853,359.829 111.218,356.464 111.218,352.314 L111.218,320.25 C111.217,316.1 107.853,312.736 103.703,312.736 Z" id="Shape" fill="#000000"></path>
            <path d="M127.75,312.736 C123.6,312.736 120.235,316.101 120.235,320.251 L120.235,321.253 C120.235,325.403 123.6,328.768 127.75,328.768 C131.9,328.768 135.265,325.403 135.265,321.253 L135.265,320.251 C135.264,316.1 131.9,312.736 127.75,312.736 Z" id="Shape" fill="#000000"></path>
            <path d="M127.75,343.796 C123.6,343.796 120.235,347.161 120.235,351.311 L120.235,352.313 C120.235,356.463 123.6,359.828 127.75,359.828 C131.9,359.828 135.265,356.463 135.265,352.313 L135.265,351.311 C135.264,347.161 131.9,343.796 127.75,343.796 Z" id="Shape" fill="#000000"></path>
            <path d="M490.798,134.83 C488.091,131.685 483.345,131.33 480.2,134.037 C477.055,136.745 476.7,141.49 479.407,144.635 C490.733,157.792 496.97,174.613 496.97,192 C496.97,209.014 491.074,224.668 481.24,237.063 C472.927,211.858 457.903,193.958 439.977,187.329 C449.474,181.881 455.889,171.648 455.889,159.937 C455.889,142.534 441.73,128.375 424.327,128.375 C406.924,128.375 392.765,142.534 392.765,159.937 C392.765,171.651 399.185,181.887 408.686,187.334 C390.775,193.97 375.737,211.879 367.419,237.069 C357.582,224.674 351.684,209.017 351.684,192 C351.684,151.945 384.271,119.358 424.326,119.358 C435.395,119.358 446.018,121.781 455.902,126.56 C459.638,128.366 464.132,126.802 465.939,123.065 C467.746,119.329 466.181,114.835 462.445,113.028 C450.505,107.255 437.68,104.328 424.327,104.328 C378.517,104.328 340.806,139.647 336.981,184.485 L311.606,184.485 L311.606,47.718 C311.606,43.568 308.241,40.203 304.091,40.203 L271.53,40.203 L271.53,7.64 C271.53,3.49 268.165,0.125 264.015,0.125 L7.515,0.125 C3.365,0.125 0,3.49 0,7.64 L0,87.797 C0,91.947 3.365,95.312 7.515,95.312 L264.016,95.312 C268.166,95.312 271.531,91.947 271.531,87.797 L271.531,55.233 L296.58,55.233 L296.58,184.485 L271.53,184.485 L271.53,151.921 C271.53,147.771 268.165,144.406 264.015,144.406 L7.515,144.406 C3.365,144.406 0,147.771 0,151.921 L0,232.078 C0,236.228 3.365,239.593 7.515,239.593 L264.016,239.593 C268.166,239.593 271.531,236.228 271.531,232.078 L271.531,199.514 L296.58,199.514 L296.58,328.766 L271.53,328.766 L271.53,296.202 C271.53,292.052 268.165,288.687 264.015,288.687 L7.515,288.687 C3.365,288.687 0,292.052 0,296.202 L0,376.359 C0,380.509 3.365,383.874 7.515,383.874 L264.016,383.874 C268.166,383.874 271.531,380.509 271.531,376.359 L271.531,343.795 L304.095,343.795 C308.245,343.795 311.61,340.43 311.61,336.28 L311.61,199.515 L336.985,199.515 C340.809,244.353 378.52,279.672 424.331,279.672 C472.671,279.671 512,240.342 512,192 C512,171.016 504.47,150.712 490.798,134.83 Z M256.501,80.282 L15.029,80.282 L15.029,15.155 L256.501,15.155 L256.501,80.282 Z M256.501,224.564 L15.029,224.564 L15.029,159.437 L256.501,159.437 L256.501,224.564 Z M256.501,368.845 L15.029,368.845 L15.029,303.718 L256.501,303.718 L256.501,368.845 Z M424.329,143.405 C433.445,143.405 440.861,150.821 440.861,159.937 C440.861,169.053 433.444,176.469 424.329,176.469 C415.214,176.469 407.797,169.053 407.797,159.937 C407.797,150.821 415.213,143.405 424.329,143.405 Z M379.545,249.132 C387.158,219.416 405.072,199.515 424.328,199.515 C443.621,199.515 461.495,219.396 469.11,249.133 C456.76,258.834 441.214,264.642 424.328,264.642 C407.442,264.642 391.895,258.834 379.545,249.132 Z" id="Shape" fill="#000000"></path>
        </g>
    </g>
</svg>