<?xml version="1.0" encoding="UTF-8"?>
<svg width="512px" height="512px" viewBox="0 0 512 512" version="1.1" xmlns="http://www.w3.org/2000/svg" xmlns:xlink="http://www.w3.org/1999/xlink">
    <!-- Generator: Sketch 51.3 (57544) - http://www.bohemiancoding.com/sketch -->
    <title>/static/images/icons/applications</title>
    <desc>Created with Sketch.</desc>
    <defs></defs>
    <g id="/static/images/icons/applications" stroke="none" stroke-width="1" fill="none" fill-rule="evenodd">
        <g id="021-speedometer" fill-rule="nonzero">
            <circle id="Oval" fill="#7C899B" cx="256" cy="256" r="248.485"></circle>
            <circle id="Oval" fill="#69788D" cx="256" cy="256" r="224.438"></circle>
            <circle id="Oval" fill="#C7CCD4" cx="256" cy="256" r="208.407"></circle>
            <circle id="Oval" fill="#ECEEF1" cx="256" cy="256" r="184.36"></circle>
            <path d="M256,376.235 C189.596,376.235 135.765,322.404 135.765,256 C135.765,189.596 189.596,135.765 256,135.765 C322.069,135.765 375.683,189.056 376.222,254.998 L416.3,254.998 C415.76,166.922 344.203,95.687 256,95.687 C167.462,95.687 95.687,167.461 95.687,256 C95.687,344.538 167.462,416.313 256,416.313 C256.111,416.313 256.222,416.309 256.334,416.309 L256.334,376.231 C256.222,376.231 256.111,376.235 256,376.235 Z" id="Shape" fill="#FF8C78"></path>
            <path d="M95.687,256 C95.687,344.538 167.462,416.313 256,416.313 C256.111,416.313 256.222,416.309 256.334,416.309 L256.334,376.231 C256.223,376.231 256.112,376.235 256,376.235 C189.596,376.235 135.765,322.404 135.765,256 C135.765,255.833 135.771,255.666 135.771,255.499 L95.693,255.499 C95.693,255.666 95.687,255.833 95.687,256 Z" id="Shape" fill="#F09B24"></path>
            <path d="M257.002,95.7 L257.002,135.778 C322.609,136.315 375.686,189.391 376.222,254.998 L416.3,254.998 C415.762,167.257 344.743,96.238 257.002,95.7 Z" id="Shape" fill="#DB6B5E"></path>
            <polygon id="Shape" fill="#69788D" points="262.942 260.008 289.922 229.307 304.094 172.699 262.156 213.276 249.058 251.992"></polygon>
            <circle id="Oval" fill="#F9CE70" cx="256" cy="256" r="24.047"></circle>
            <circle id="Oval" fill="#F3AF50" cx="256" cy="256" r="8.016"></circle>
            <path d="M437.02,74.98 C388.667,26.629 324.381,0 256,0 C187.619,0 123.333,26.629 74.98,74.98 C26.628,123.333 0,187.619 0,256 C0,324.381 26.628,388.667 74.98,437.02 C123.333,485.371 187.619,512 256,512 C324.381,512 388.667,485.371 437.02,437.02 C485.372,388.667 512,324.381 512,256 C512,187.619 485.372,123.333 437.02,74.98 Z M256,496.971 C123.128,496.971 15.029,388.872 15.029,256 C15.029,123.128 123.128,15.029 256,15.029 C388.872,15.029 496.971,123.128 496.971,256 C496.971,388.872 388.872,496.971 256,496.971 Z" id="Shape" fill="#000000"></path>
            <path d="M453.873,169.45 C442.306,143.043 425.809,119.533 404.839,99.574 C401.831,96.712 397.076,96.831 394.214,99.837 C391.353,102.843 391.471,107.6 394.476,110.462 C434.725,148.77 456.891,200.457 456.891,256.001 C456.891,366.773 366.771,456.893 255.999,456.893 C145.227,456.893 55.108,366.772 55.108,256 C55.108,145.228 145.228,55.108 256,55.108 C294.933,55.108 332.696,66.258 365.202,87.352 C368.683,89.61 373.337,88.62 375.597,85.139 C377.855,81.657 376.865,77.004 373.384,74.745 C338.435,52.066 297.845,40.078 256,40.078 C198.325,40.078 144.102,62.538 103.32,103.321 C62.538,144.102 40.078,198.325 40.078,256 C40.078,313.675 62.538,367.898 103.32,408.679 C144.103,449.462 198.326,471.922 256,471.922 C313.674,471.922 367.898,449.462 408.68,408.679 C449.462,367.897 471.922,313.674 471.922,256 C471.922,225.911 465.849,196.792 453.873,169.45 Z" id="Shape" fill="#000000"></path>
            <path d="M421.63,260.295 C423.041,258.875 423.826,256.952 423.815,254.952 C423.541,210.343 405.965,168.448 374.322,136.986 C342.666,105.508 300.645,88.172 256,88.172 C163.46,88.172 88.172,163.459 88.172,256 C88.172,348.541 163.46,423.828 256,423.828 L256.334,423.824 C260.485,423.824 263.849,420.459 263.849,416.309 L263.849,376.231 C263.849,372.081 260.485,368.716 256.334,368.716 L255.987,368.72 C193.839,368.714 143.28,318.15 143.28,256 C143.28,193.846 193.847,143.28 256,143.28 C317.642,143.28 368.203,193.424 368.707,255.06 C368.741,259.186 372.096,262.513 376.222,262.513 L416.3,262.513 C418.301,262.513 420.22,261.715 421.63,260.295 Z M383.463,247.483 C381.426,216.392 368.277,187.45 345.979,165.32 C321.892,141.415 289.937,128.25 256,128.25 C185.558,128.25 128.25,185.558 128.25,256 C128.25,324.034 181.702,379.816 248.818,383.55 L248.818,408.632 C167.886,404.87 103.202,337.847 103.202,256 C103.202,171.746 171.747,103.202 256,103.202 C337.198,103.202 404.108,167.255 408.554,247.484 L383.463,247.484 L383.463,247.483 Z" id="Shape" fill="#000000"></path>
            <path d="M297.212,231.131 L311.384,174.522 C312.177,171.356 310.772,167.952 307.978,166.266 C305.093,164.525 301.292,164.951 298.869,167.297 L256.931,207.874 C256.07,208.707 255.421,209.733 255.037,210.867 L250.267,224.97 C235.591,227.675 224.438,240.554 224.438,256 C224.438,273.403 238.597,287.562 256,287.562 C273.403,287.562 287.562,273.403 287.562,256 C287.562,252.301 286.917,248.75 285.741,245.448 L295.567,234.267 C296.358,233.368 296.922,232.293 297.212,231.131 Z M256,272.532 C246.884,272.532 239.468,265.115 239.468,256 C239.468,246.884 246.884,239.468 256,239.468 C265.116,239.468 272.532,246.884 272.532,256 C272.532,265.116 265.116,272.532 256,272.532 Z M283.075,225.714 L277.08,232.535 C273.846,229.626 270.009,227.38 265.784,225.998 L268.69,217.409 L290.417,196.388 L283.075,225.714 Z" id="Shape" fill="#000000"></path>
            <path d="M330.842,330.843 C327.907,333.778 327.907,338.536 330.842,341.47 L362.905,373.533 C365.962,376.589 371.122,376.384 373.933,373.102 C376.451,370.161 376.27,365.641 373.534,362.906 L341.471,330.843 C338.535,327.908 333.778,327.908 330.842,330.843 Z" id="Shape" fill="#000000"></path>
            <path d="M303.217,407.701 C304.691,411.752 309.433,413.753 313.369,411.981 C316.908,410.388 318.667,406.206 317.341,402.561 L301.833,359.952 C300.413,356.053 296.103,354.037 292.201,355.46 C288.301,356.88 286.29,361.192 287.71,365.092 L303.217,407.701 Z" id="Shape" fill="#000000"></path>
            <path d="M405.13,317.796 C408.813,317.796 412.026,315.015 412.566,311.374 C413.083,307.888 411.01,304.422 407.701,303.218 L365.093,287.71 C361.187,286.289 356.88,288.302 355.461,292.202 C354.041,296.102 356.053,300.414 359.952,301.834 L402.56,317.342 C403.41,317.649 404.277,317.796 405.13,317.796 Z" id="Shape" fill="#000000"></path>
        </g>
    </g>
</svg>