<?xml version="1.0" encoding="UTF-8"?>
<svg width="512px" height="512px" viewBox="0 0 512 512" version="1.1" xmlns="http://www.w3.org/2000/svg" xmlns:xlink="http://www.w3.org/1999/xlink">
    <!-- Generator: Sketch 51.3 (57544) - http://www.bohemiancoding.com/sketch -->
    <title>/static/images/icons/certificate</title>
    <desc>Created with Sketch.</desc>
    <defs></defs>
    <g id="/static/images/icons/certificate" stroke="none" stroke-width="1" fill="none" fill-rule="evenodd">
        <g id="001-premium" fill-rule="nonzero">
            <g id="Group" transform="translate(64.000000, 248.000000)" fill="#69788D">
                <polygon id="Shape" points="315.958 255.917 330.628 201.169 385.376 215.839 261.133 0.645 191.715 40.723"></polygon>
                <polygon id="Shape" points="70.042 255.917 55.372 201.169 0.624 215.839 124.867 0.645 194.285 40.723"></polygon>
            </g>
            <g id="Group" transform="translate(130.000000, 248.000000)" fill="#56677E">
                <polygon id="Shape" points="127 39.982 128.285 40.723 127 42.948 183.955 141.598 221.9 141.598 253.026 102.567 253.771 102.209 195.133 0.645"></polygon>
                <polygon id="Shape" points="125.715 40.723 127 39.982 58.867 0.645 0.229 102.209 0.974 102.567 32.1 141.598 70.045 141.598 127 42.948"></polygon>
            </g>
            <polygon id="Shape" fill="#FFDB66" points="257 9.399 294.661 27.535 336.46 27.535 362.521 60.216 400.182 78.351 409.483 119.103 435.545 151.784 426.244 192.535 435.545 233.287 409.483 265.967 400.182 306.718 362.521 324.855 336.46 357.536 294.661 357.536 257 375.671 219.339 357.536 177.54 357.536 151.479 324.855 113.818 306.718 104.517 265.967 78.455 233.287 87.756 192.535 78.455 151.784 104.517 119.103 113.818 78.351 151.479 60.216 177.54 27.535 219.339 27.535"></polygon>
            <circle id="Oval" fill="#F7C14D" cx="257" cy="192.536" r="152.297"></circle>
            <circle id="Oval" fill="#FF8C78" cx="257" cy="192.536" r="136.266"></circle>
            <circle id="Oval" fill="#DB6B5E" cx="257" cy="192.536" r="120.235"></circle>
            <polygon id="Shape" fill="#C7CCD4" points="160.812 152.457 160.812 184.52 257 296.739 353.188 184.52 353.188 152.457"></polygon>
            <polygon id="Shape" fill="#A1ABB8" points="160.812 152.457 160.812 184.52 257 296.739 257 152.457"></polygon>
            <polygon id="Shape" fill="#B4BBC6" points="208.906 152.457 208.906 184.52 257 296.739 305.094 184.52 305.094 152.457"></polygon>
            <polygon id="Shape" fill="#ECEEF1" points="353.188 152.457 329.141 120.394 184.859 120.394 160.812 152.457"></polygon>
            <polygon id="Shape" fill="#C7CCD4" points="257 152.457 257 120.394 184.859 120.394 160.812 152.457"></polygon>
            <polygon id="Shape" fill="#D9DDE2" points="305.094 152.457 281.047 120.394 232.953 120.394 208.906 152.457"></polygon>
            <rect id="Rectangle-path" fill="#B4BBC6" x="160.812" y="152.458" width="48.094" height="32.063"></rect>
            <rect id="Rectangle-path" fill="#C7CCD4" x="208.906" y="152.458" width="96.188" height="32.063"></rect>
            <rect id="Rectangle-path" fill="#D9DDE2" x="305.094" y="152.458" width="48.094" height="32.063"></rect>
            <g id="Group" transform="translate(8.000000, 8.000000)" fill="#F9CE70">
                <path d="M32.577,216.598 C32.577,247.587 46.932,272.708 64.64,272.708 C46.932,272.708 32.577,297.829 32.577,328.818 C32.577,297.829 18.222,272.708 0.514,272.708 C18.222,272.707 32.577,247.586 32.577,216.598 Z" id="Shape"></path>
                <path d="M473.438,352.864 C473.438,370.572 484.204,384.927 497.485,384.927 C484.204,384.927 473.438,399.282 473.438,416.99 C473.438,399.282 462.672,384.927 449.391,384.927 C462.672,384.927 473.438,370.572 473.438,352.864 Z" id="Shape"></path>
                <path d="M425.344,0.175 C425.344,17.883 436.11,32.238 449.391,32.238 C436.11,32.238 425.344,46.593 425.344,64.301 C425.344,46.593 414.578,32.238 401.297,32.238 C414.578,32.238 425.344,17.883 425.344,0.175 Z" id="Shape"></path>
            </g>
            <path d="M455.883,460.082 L378.252,325.62 L403.442,313.489 C405.503,312.497 406.999,310.621 407.508,308.391 L416.427,269.311 L441.419,237.972 C442.846,236.185 443.38,233.845 442.87,231.615 L433.952,192.536 L442.87,153.457 C443.38,151.227 442.846,148.887 441.419,147.1 L416.427,115.761 L407.508,76.681 C406.999,74.451 405.503,72.575 403.442,71.583 L367.326,54.191 L342.334,22.853 C340.908,21.065 338.746,20.023 336.46,20.023 L296.376,20.023 L260.26,2.629 C258.199,1.637 255.8,1.637 253.739,2.629 L217.624,20.02 L177.54,20.02 C175.254,20.02 173.091,21.061 171.666,22.85 L146.674,54.188 L110.558,71.58 C108.497,72.572 107.001,74.448 106.492,76.678 L97.573,115.758 L72.58,147.098 C71.153,148.885 70.619,151.225 71.129,153.455 L80.047,192.534 L71.129,231.613 C70.619,233.843 71.153,236.183 72.58,237.97 L97.572,269.309 L106.491,308.389 C107,310.619 108.496,312.495 110.557,313.487 L135.747,325.618 L58.116,460.082 C54.839,465.759 60.241,472.797 66.57,471.098 L114.059,458.373 L126.785,505.863 C128.479,512.185 137.271,513.358 140.551,507.676 L221.749,367.036 L253.74,382.441 C255.783,383.425 258.217,383.425 260.261,382.441 L292.252,367.036 L373.451,507.676 C376.731,513.357 385.523,512.188 387.217,505.863 L399.943,458.373 L447.432,471.098 C453.757,472.795 459.162,465.761 455.883,460.082 Z M136.605,484.449 L126.631,447.224 C125.572,443.272 121.383,440.854 117.427,441.911 L80.204,451.885 L148.641,333.347 L171.666,362.218 C173.092,364.007 175.254,365.048 177.54,365.048 L205.54,365.048 L136.605,484.449 Z M291.4,350.765 L257,367.331 L222.6,350.766 C221.583,350.276 220.469,350.022 219.34,350.022 L181.16,350.022 L157.354,320.172 C156.651,319.289 155.757,318.576 154.74,318.087 L120.34,301.521 L111.844,264.297 C111.594,263.196 111.098,262.167 110.393,261.284 L86.588,231.433 L95.084,194.21 C95.335,193.109 95.335,191.967 95.084,190.865 L86.588,153.642 L110.393,123.791 C111.097,122.908 111.593,121.879 111.844,120.778 L120.34,83.554 L154.74,66.988 C155.758,66.499 156.651,65.786 157.354,64.903 L181.16,35.053 L219.34,35.053 C220.469,35.053 221.583,34.798 222.6,34.309 L257,17.74 L291.4,34.305 C292.417,34.795 293.531,35.049 294.66,35.049 L332.84,35.049 L356.646,64.899 C357.349,65.782 358.243,66.495 359.26,66.984 L393.66,83.55 L402.156,120.774 C402.406,121.875 402.902,122.904 403.607,123.787 L427.412,153.638 L418.916,190.861 C418.665,191.962 418.665,193.104 418.916,194.206 L427.412,231.429 L403.607,261.28 C402.903,262.163 402.407,263.192 402.156,264.293 L393.66,301.517 L359.26,318.083 C358.242,318.572 357.349,319.285 356.646,320.168 L332.84,350.018 L294.66,350.018 C293.531,350.021 292.417,350.274 291.4,350.765 Z M396.574,441.911 C392.62,440.847 388.428,443.277 387.37,447.224 L377.396,484.449 L308.46,365.05 L336.461,365.05 C338.747,365.05 340.91,364.009 342.335,362.22 L365.36,333.349 L433.797,451.887 L396.574,441.911 Z" id="Shape" fill="#000000"></path>
            <path d="M400.781,192.535 C400.781,153.192 385.195,116.466 356.894,89.123 C353.91,86.237 349.152,86.321 346.269,89.306 C343.385,92.291 343.467,97.048 346.452,99.931 C371.793,124.417 385.751,157.305 385.751,192.535 C385.751,263.529 327.993,321.286 257,321.286 C186.007,321.286 128.249,263.528 128.249,192.535 C128.249,121.542 186.006,63.784 257,63.784 C278.145,63.784 299.109,69.019 317.626,78.921 C321.286,80.88 325.84,79.498 327.796,75.839 C329.754,72.18 328.373,67.626 324.714,65.669 C304.026,54.603 280.609,48.754 257,48.754 C177.719,48.754 113.219,113.254 113.219,192.535 C113.219,271.816 177.719,336.316 257,336.316 C336.281,336.316 400.781,271.816 400.781,192.535 Z" id="Shape" fill="#000000"></path>
            <path d="M184.859,112.88 C182.494,112.88 180.266,113.993 178.847,115.886 L154.8,147.948 C153.836,149.234 153.297,150.85 153.297,152.457 L153.297,184.52 C153.297,186.281 153.946,188.079 155.107,189.411 L251.25,301.577 C254.219,305.093 259.778,305.065 262.751,301.577 L358.894,189.411 C360.054,188.079 360.704,186.283 360.704,184.52 L360.704,152.457 C360.704,150.85 360.166,149.234 359.201,147.948 L335.154,115.885 C333.735,113.992 331.507,112.879 329.142,112.879 L184.859,112.88 Z M277.29,127.909 L290.065,144.942 L223.936,144.942 L236.711,127.909 L277.29,127.909 Z M297.579,177.005 L216.42,177.005 L216.42,159.972 L297.579,159.972 L297.579,177.005 Z M293.698,192.034 L257,277.663 L220.302,192.035 L293.698,192.035 L293.698,192.034 Z M201.391,177.005 L168.326,177.005 L168.326,159.972 L201.391,159.972 L201.391,177.005 Z M203.951,192.034 L230.751,254.568 L177.15,192.034 L203.951,192.034 Z M310.049,192.034 L336.849,192.034 L283.248,254.568 L310.049,192.034 Z M345.673,177.005 L312.608,177.005 L312.608,159.972 L345.673,159.972 L345.673,177.005 Z M188.616,127.909 L217.923,127.909 L205.148,144.942 L175.841,144.942 L188.616,127.909 Z M338.159,144.942 L308.852,144.942 L296.077,127.909 L325.384,127.909 L338.159,144.942 Z" id="Shape" fill="#000000"></path>
            <path d="M72.64,288.222 C76.791,288.222 80.155,284.858 80.155,280.707 C80.155,276.556 76.791,273.192 72.64,273.192 C61.029,273.192 48.092,253.235 48.092,224.597 C48.092,220.446 44.728,217.082 40.577,217.082 C36.426,217.082 33.062,220.446 33.062,224.597 C33.062,253.235 20.125,273.192 8.514,273.192 C4.363,273.192 0.999,276.556 0.999,280.707 C0.999,284.858 4.363,288.222 8.514,288.222 C20.125,288.222 33.062,308.179 33.062,336.817 C33.062,340.968 36.426,344.332 40.577,344.332 C44.728,344.332 48.092,340.968 48.092,336.817 C48.092,308.179 61.029,288.222 72.64,288.222 Z M40.577,299.063 C37.139,291.457 32.667,285.176 27.462,280.707 C32.666,276.238 37.139,269.957 40.577,262.351 C44.015,269.957 48.487,276.238 53.692,280.707 C48.488,285.176 44.015,291.457 40.577,299.063 Z" id="Shape" fill="#000000"></path>
            <path d="M505.485,385.412 C496.523,385.412 488.953,374.17 488.953,360.864 C488.953,356.713 485.589,353.349 481.438,353.349 C477.287,353.349 473.923,356.713 473.923,360.864 C473.923,374.17 466.352,385.412 457.391,385.412 C453.24,385.412 449.876,388.776 449.876,392.927 C449.876,397.078 453.24,400.442 457.391,400.442 C466.352,400.442 473.923,411.684 473.923,424.99 C473.923,429.141 477.287,432.505 481.438,432.505 C485.589,432.505 488.953,429.141 488.953,424.99 C488.953,411.684 496.524,400.442 505.485,400.442 C509.636,400.442 513,397.078 513,392.927 C513,388.776 509.636,385.412 505.485,385.412 Z M481.438,399.382 C479.797,396.963 477.928,394.793 475.875,392.926 C477.928,391.059 479.797,388.889 481.438,386.47 C483.079,388.889 484.948,391.059 487.001,392.926 C484.948,394.793 483.08,396.964 481.438,399.382 Z" id="Shape" fill="#000000"></path>
            <path d="M409.297,47.752 C418.258,47.752 425.829,58.994 425.829,72.3 C425.829,76.451 429.193,79.815 433.344,79.815 C437.495,79.815 440.859,76.451 440.859,72.3 C440.859,58.994 448.43,47.752 457.391,47.752 C461.542,47.752 464.906,44.388 464.906,40.237 C464.906,36.086 461.542,32.722 457.391,32.722 C448.429,32.722 440.859,21.48 440.859,8.174 C440.859,4.023 437.495,0.659 433.344,0.659 C429.193,0.659 425.829,4.023 425.829,8.174 C425.829,21.48 418.258,32.722 409.297,32.722 C405.146,32.722 401.782,36.086 401.782,40.237 C401.782,44.388 405.146,47.752 409.297,47.752 Z M433.344,33.781 C434.985,36.2 436.854,38.37 438.907,40.237 C436.854,42.104 434.985,44.274 433.344,46.693 C431.703,44.274 429.834,42.104 427.781,40.237 C429.835,38.371 431.703,36.201 433.344,33.781 Z" id="Shape" fill="#000000"></path>
        </g>
    </g>
</svg>