<?xml version="1.0" encoding="UTF-8"?>
<svg width="512px" height="512px" viewBox="0 0 512 512" version="1.1" xmlns="http://www.w3.org/2000/svg" xmlns:xlink="http://www.w3.org/1999/xlink">
    <!-- Generator: Sketch 51.3 (57544) - http://www.bohemiancoding.com/sketch -->
    <title>/static/images/icons/controlling</title>
    <desc>Created with Sketch.</desc>
    <defs></defs>
    <g id="/static/images/icons/controlling" stroke="none" stroke-width="1" fill="none" fill-rule="evenodd">
        <g id="003-cloud-computing-6" fill-rule="nonzero">
            <g id="Group" transform="translate(7.000000, 320.000000)" fill="#FFDB66">
                <circle id="Oval" cx="112.734" cy="16.157" r="16.031"></circle>
                <circle id="Oval" cx="64.64" cy="80.282" r="16.031"></circle>
                <circle id="Oval" cx="401.297" cy="48.219" r="16.031"></circle>
                <circle id="Oval" cx="449.391" cy="112.344" r="16.031"></circle>
                <circle id="Oval" cx="481.454" cy="168.454" r="16.031"></circle>
                <circle id="Oval" cx="16.546" cy="144.407" r="16.031"></circle>
            </g>
            <path d="M362.207,95.687 C346.923,95.687 333.073,101.806 322.954,111.718 L322.627,111.718 C327.429,102.057 330.144,91.176 330.144,79.655 C330.144,39.812 297.846,7.514 258.003,7.514 C218.16,7.514 185.862,39.812 185.862,79.655 C185.862,82.68 186.07,85.656 186.431,88.582 C176.87,82.917 165.718,79.655 153.799,79.655 C118.384,79.655 89.674,108.365 89.674,143.78 C89.674,179.195 118.384,207.905 153.799,207.905 L362.206,207.905 C393.195,207.905 418.316,182.784 418.316,151.795 C418.316,120.806 393.196,95.687 362.207,95.687 Z" id="Shape" fill="#3CBDE8"></path>
            <path d="M376.235,183.859 L167.828,183.859 C132.413,183.859 103.703,155.149 103.703,119.734 C103.703,112.942 104.768,106.399 106.725,100.255 C96.147,111.689 89.676,126.977 89.676,143.781 C89.676,179.196 118.386,207.906 153.801,207.906 L362.208,207.906 C387.871,207.906 409.493,190.671 416.173,167.149 C405.999,177.462 391.865,183.859 376.235,183.859 Z" id="Shape" fill="#2C9DD4"></path>
            <circle id="Oval" fill="#2A7DB5" cx="256" cy="151.796" r="16.031"></circle>
            <path d="M488.454,464.908 C478.098,464.908 469.289,471.631 466.144,480.939 L279.546,480.939 L279.546,215.421 L296.579,215.421 L296.579,432.345 C296.579,436.496 299.943,439.86 304.094,439.86 L434.082,439.86 C437.226,449.168 446.035,455.891 456.392,455.891 C469.375,455.891 479.938,445.328 479.938,432.345 C479.938,419.362 469.375,408.799 456.392,408.799 C446.036,408.799 437.227,415.522 434.082,424.83 L311.609,424.83 L311.609,215.421 L336.658,215.421 L336.658,368.219 C336.658,372.37 340.022,375.734 344.173,375.734 L385.989,375.734 C389.133,385.042 397.942,391.765 408.299,391.765 C421.282,391.765 431.845,381.202 431.845,368.219 C431.845,355.236 421.282,344.673 408.299,344.673 C397.943,344.673 389.134,351.396 385.989,360.704 L351.688,360.704 L351.688,215.421 L362.209,215.421 C397.292,215.421 425.833,186.879 425.833,151.797 C425.833,116.715 397.291,88.173 362.209,88.173 C353.203,88.173 344.465,90.043 336.451,93.596 C337.257,89.034 337.661,84.381 337.661,79.657 C337.661,67.642 335.051,56.09 329.901,45.323 C328.111,41.58 323.623,39.995 319.879,41.787 C316.136,43.577 314.553,48.064 316.343,51.809 C320.516,60.534 322.631,69.904 322.631,79.657 C322.631,89.728 320.367,99.39 315.9,108.374 C314.21,111.774 315.397,116.026 318.599,118.061 C321.56,119.943 325.7,119.55 328.213,117.088 C337.354,108.135 349.427,103.203 362.208,103.203 C389.003,103.203 410.803,125.003 410.803,151.798 C410.803,178.593 389.003,200.393 362.208,200.393 L153.8,200.393 C122.585,200.393 97.189,174.997 97.189,143.782 C97.189,112.567 122.585,87.17 153.8,87.17 C163.943,87.17 173.902,89.894 182.602,95.047 C187.871,98.173 194.64,93.726 193.89,87.662 C193.544,84.868 193.377,82.248 193.377,79.655 C193.377,44.02 222.369,15.029 258.003,15.029 C270.329,15.029 282.312,18.51 292.657,25.095 C296.111,27.295 300.833,26.245 303.031,22.79 C305.229,19.335 304.18,14.614 300.726,12.416 C287.967,4.293 273.194,0 258.004,0 C215.138,0 180.072,34.033 178.411,76.499 C170.563,73.628 162.231,72.14 153.801,72.14 C114.299,72.14 82.161,104.278 82.161,143.78 C82.161,183.282 114.299,215.42 153.801,215.42 L160.314,215.42 L160.314,328.641 L142.044,328.641 C138.9,319.333 130.091,312.61 119.734,312.61 C106.751,312.61 96.188,323.173 96.188,336.156 C96.188,349.139 106.751,359.702 119.734,359.702 C130.09,359.702 138.899,352.979 142.044,343.671 L167.828,343.671 C171.978,343.671 175.343,340.307 175.343,336.156 L175.343,215.421 L200.392,215.421 L200.392,392.767 L93.949,392.767 C90.805,383.459 81.996,376.736 71.639,376.736 C58.656,376.736 48.093,387.299 48.093,400.282 C48.093,413.265 58.656,423.828 71.639,423.828 C81.995,423.828 90.804,417.105 93.949,407.797 L207.906,407.797 C212.056,407.797 215.421,404.433 215.421,400.282 L215.421,215.421 L232.479,215.421 C232.468,215.587 232.454,215.753 232.454,215.922 L232.454,455.89 L45.492,455.89 C42.07,447.105 33.527,440.861 23.546,440.861 C10.563,440.861 0,451.424 0,464.407 C0,477.39 10.563,487.953 23.546,487.953 C34.27,487.953 43.336,480.744 46.168,470.92 L239.969,470.92 C244.119,470.92 247.484,467.556 247.484,463.405 L247.484,215.922 C247.484,215.753 247.47,215.587 247.459,215.421 L264.517,215.421 L264.517,488.454 C264.517,492.605 267.881,495.969 272.032,495.969 L466.145,495.969 C469.289,505.277 478.098,512 488.455,512 C501.437,512 512,501.437 512,488.454 C512,475.471 501.437,464.908 488.454,464.908 Z M456.391,423.828 C461.087,423.828 464.908,427.648 464.908,432.345 C464.908,437.041 461.088,440.862 456.391,440.862 C451.695,440.862 447.874,437.042 447.874,432.345 C447.875,427.648 451.695,423.828 456.391,423.828 Z M408.297,359.703 C412.993,359.703 416.814,363.523 416.814,368.22 C416.814,372.916 412.994,376.737 408.297,376.737 C403.601,376.737 399.78,372.917 399.78,368.22 C399.781,363.523 403.601,359.703 408.297,359.703 Z M119.734,344.673 C115.038,344.673 111.217,340.853 111.217,336.156 C111.217,331.46 115.037,327.639 119.734,327.639 C124.431,327.639 128.251,331.459 128.251,336.156 C128.25,340.853 124.43,344.673 119.734,344.673 Z M71.64,408.798 C66.944,408.798 63.123,404.978 63.123,400.281 C63.123,395.585 66.943,391.764 71.64,391.764 C76.337,391.764 80.157,395.584 80.157,400.281 C80.157,404.978 76.336,408.798 71.64,408.798 Z M23.546,472.924 C18.85,472.924 15.029,469.104 15.029,464.407 C15.029,459.711 18.849,455.89 23.546,455.89 C28.243,455.89 32.063,459.71 32.063,464.407 C32.063,469.103 28.242,472.924 23.546,472.924 Z M488.454,496.971 C483.758,496.971 479.937,493.151 479.937,488.454 C479.937,483.758 483.757,479.937 488.454,479.937 C493.15,479.937 496.971,483.757 496.971,488.454 C496.971,493.15 493.15,496.971 488.454,496.971 Z" id="Shape" fill="#000000"></path>
            <path d="M256,128.25 C243.017,128.25 232.454,138.813 232.454,151.796 C232.454,164.779 243.017,175.342 256,175.342 C268.983,175.342 279.546,164.779 279.546,151.796 C279.546,138.813 268.983,128.25 256,128.25 Z M256,160.313 C251.304,160.313 247.483,156.493 247.483,151.796 C247.483,147.099 251.303,143.279 256,143.279 C260.697,143.279 264.517,147.099 264.517,151.796 C264.517,156.493 260.696,160.313 256,160.313 Z" id="Shape" fill="#000000"></path>
            <path d="M290.312,86.865 C293.883,86.865 297.04,84.249 297.703,80.739 C298.329,77.424 296.585,74.005 293.539,72.56 C281.747,66.963 269.117,64.126 256,64.126 C242.883,64.126 230.254,66.964 218.461,72.56 C214.712,74.338 213.115,78.821 214.893,82.571 C216.671,86.32 221.153,87.919 224.904,86.138 C234.668,81.505 245.131,79.155 256.001,79.155 C266.872,79.155 277.334,81.505 287.096,86.138 C288.136,86.631 289.232,86.865 290.312,86.865 Z" id="Shape" fill="#000000"></path>
            <path d="M283.38,111.549 C285.158,107.8 283.561,103.318 279.811,101.538 C272.328,97.988 264.317,96.188 256,96.188 C247.683,96.188 239.672,97.989 232.188,101.538 C228.439,103.317 226.841,107.799 228.62,111.549 C230.398,115.298 234.881,116.897 238.631,115.118 C244.085,112.53 249.928,111.217 256,111.217 C262.072,111.217 267.916,112.53 273.37,115.118 C277.075,116.874 281.625,115.248 283.38,111.549 Z" id="Shape" fill="#000000"></path>
        </g>
    </g>
</svg>