<?xml version="1.0" encoding="UTF-8"?>
<svg width="512px" height="512px" viewBox="0 0 512 512" version="1.1" xmlns="http://www.w3.org/2000/svg" xmlns:xlink="http://www.w3.org/1999/xlink">
    <!-- Generator: Sketch 51.3 (57544) - http://www.bohemiancoding.com/sketch -->
    <title>/static/images/icons/countries</title>
    <desc>Created with Sketch.</desc>
    <defs></defs>
    <g id="/static/images/icons/countries" stroke="none" stroke-width="1" fill="none" fill-rule="evenodd">
        <g id="004-server-4" fill-rule="nonzero">
            <path d="M183.859,79.656 C183.859,39.813 216.158,7.515 256,7.515 C295.842,7.515 328.141,39.813 328.141,79.656 C328.141,119.499 256,199.89 256,199.89 C256,199.89 183.859,119.498 183.859,79.656 Z" id="Shape" fill="#3CBDE8"></path>
            <path d="M207.906,79.656 C207.906,43.912 233.907,14.258 268.023,8.531 C264.111,7.875 260.099,7.515 256,7.515 C216.157,7.515 183.859,39.813 183.859,79.656 C183.859,119.499 256,199.89 256,199.89 C256,199.89 260.848,194.485 268.023,185.796 C247.503,160.948 207.906,109.175 207.906,79.656 Z" id="Shape" fill="#2C9DD4"></path>
            <circle id="Oval" fill="#F7C14D" cx="256" cy="79.656" r="32.063"></circle>
            <circle id="Oval" fill="#FFDB66" cx="256" cy="79.656" r="16.031"></circle>
            <path d="M360.204,135.765 C360.204,95.922 392.503,63.624 432.345,63.624 C472.187,63.624 504.486,95.922 504.486,135.765 C504.486,175.608 432.344,256 432.344,256 C432.344,256 360.204,175.607 360.204,135.765 Z" id="Shape" fill="#3CBDE8"></path>
            <path d="M384.25,135.765 C384.25,100.021 410.251,70.367 444.367,64.641 C440.455,63.984 436.443,63.624 432.344,63.624 C392.501,63.624 360.203,95.922 360.203,135.765 C360.203,175.608 432.344,256 432.344,256 C432.344,256 437.192,250.595 444.367,241.906 C423.848,217.058 384.25,165.285 384.25,135.765 Z" id="Shape" fill="#2C9DD4"></path>
            <circle id="Oval" fill="#F7C14D" cx="432.344" cy="135.765" r="32.063"></circle>
            <circle id="Oval" fill="#FFDB66" cx="432.344" cy="135.765" r="16.031"></circle>
            <path d="M7.515,135.765 C7.515,95.922 39.813,63.624 79.656,63.624 C119.499,63.624 151.797,95.922 151.797,135.765 C151.797,175.608 79.656,256 79.656,256 C79.656,256 7.515,175.607 7.515,135.765 Z" id="Shape" fill="#3CBDE8"></path>
            <path d="M31.562,135.765 C31.562,100.021 57.563,70.367 91.679,64.641 C87.767,63.984 83.755,63.624 79.656,63.624 C39.813,63.624 7.515,95.922 7.515,135.765 C7.515,175.608 79.656,256 79.656,256 C79.656,256 84.504,250.595 91.679,241.906 C71.159,217.058 31.562,165.285 31.562,135.765 Z" id="Shape" fill="#2C9DD4"></path>
            <circle id="Oval" fill="#F7C14D" cx="79.656" cy="135.765" r="32.063"></circle>
            <circle id="Oval" fill="#FFDB66" cx="79.656" cy="135.765" r="16.031"></circle>
            <rect id="Rectangle-path" fill="#8E9AA9" x="127.75" y="424.329" width="256.501" height="80.157"></rect>
            <polygon id="Shape" fill="#7C899B" points="143.781 488.454 143.781 424.329 127.75 424.329 127.75 504.485 384.25 504.485 384.25 488.454"></polygon>
            <rect id="Rectangle-path" fill="#B8E3A8" x="272.031" y="448.376" width="88.172" height="32.063"></rect>
            <g id="Group" transform="translate(272.000000, 448.000000)" fill="#7EC97D">
                <polygon id="Shape" points="0.031 0.376 0.031 32.438 16.063 32.438 48.125 0.376"></polygon>
                <polygon id="Shape" points="66.829 0.376 34.766 32.438 88.204 32.438 88.204 0.376"></polygon>
            </g>
            <circle id="Oval" fill="#F09B24" cx="256" cy="320.125" r="24.047"></circle>
            <circle id="Oval" fill="#F7C14D" cx="256" cy="320.125" r="8.016"></circle>
            <path d="M256,40.078 C234.177,40.078 216.423,57.833 216.423,79.655 C216.423,101.477 234.178,119.232 256,119.232 C277.822,119.232 295.577,101.477 295.577,79.655 C295.577,57.833 277.823,40.078 256,40.078 Z M256,104.204 C242.465,104.204 231.452,93.192 231.452,79.656 C231.452,66.12 242.465,55.108 256,55.108 C269.535,55.108 280.548,66.12 280.548,79.656 C280.548,93.192 269.535,104.204 256,104.204 Z" id="Shape" fill="#000000"></path>
            <path d="M512,135.765 C512,91.842 476.266,56.109 432.344,56.109 C388.422,56.109 352.688,91.842 352.688,135.765 C352.688,153.895 365.3,180.625 390.172,215.211 C405.03,235.871 419.678,252.961 424.829,258.843 L424.829,312.61 L286.651,312.61 C283.862,301.234 274.891,292.264 263.515,289.474 L263.515,202.734 C268.665,196.852 283.313,179.762 298.172,159.102 C323.045,124.515 335.656,97.786 335.656,79.656 C335.656,66.937 332.745,54.778 327.005,43.521 C325.12,39.823 320.594,38.355 316.897,40.24 C313.2,42.126 311.731,46.651 313.616,50.348 C318.268,59.471 320.627,69.332 320.627,79.656 C320.627,107.387 278.173,162.624 256,188.485 C233.827,162.632 191.375,107.408 191.375,79.656 C191.375,44.021 220.367,15.03 256.001,15.03 C268.071,15.03 279.84,18.377 290.035,24.707 C293.561,26.895 298.194,25.812 300.383,22.286 C302.572,18.76 301.489,14.127 297.962,11.938 C285.384,4.128 270.874,0 256,0 C212.078,0 176.344,35.733 176.344,79.656 C176.344,97.786 188.956,124.516 213.828,159.102 C228.686,179.762 243.334,196.852 248.485,202.734 L248.485,289.474 C237.109,292.264 228.139,301.234 225.349,312.61 L87.17,312.61 L87.17,258.843 C92.32,252.961 106.968,235.871 121.827,215.211 C146.7,180.624 159.311,153.895 159.311,135.765 C159.311,91.842 123.577,56.109 79.655,56.109 C35.733,56.109 0,91.842 0,135.765 C0,153.895 12.612,180.625 37.484,215.211 C52.343,235.871 66.991,252.961 72.141,258.843 L72.141,320.125 C72.141,324.276 75.506,327.64 79.656,327.64 L225.35,327.64 C228.139,339.016 237.11,347.986 248.486,350.776 L248.486,416.814 L127.75,416.814 C123.6,416.814 120.235,420.178 120.235,424.329 L120.235,504.486 C120.235,508.637 123.6,512.001 127.75,512.001 L384.25,512.001 C388.4,512.001 391.765,508.637 391.765,504.486 L391.765,424.329 C391.765,420.178 388.4,416.814 384.25,416.814 L263.515,416.814 L263.515,350.776 C274.891,347.986 283.861,339.016 286.651,327.64 L432.345,327.64 C436.495,327.64 439.86,324.276 439.86,320.125 L439.86,258.843 C445.01,252.961 459.658,235.871 474.517,215.211 C499.388,180.625 512,153.896 512,135.765 Z M15.029,135.765 C15.029,100.13 44.021,71.139 79.655,71.139 C115.289,71.139 144.281,100.131 144.281,135.765 C144.281,163.496 101.827,218.733 79.654,244.594 C57.481,218.74 15.029,163.516 15.029,135.765 Z M376.736,496.971 L135.264,496.971 L135.264,431.844 L376.736,431.844 L376.736,496.971 Z M256,336.658 C246.884,336.658 239.468,329.241 239.468,320.126 C239.468,311.011 246.884,303.594 256,303.594 C265.116,303.594 272.532,311.011 272.532,320.126 C272.532,329.241 265.116,336.658 256,336.658 Z M367.718,135.765 C367.718,100.13 396.71,71.139 432.344,71.139 C467.978,71.139 496.97,100.131 496.97,135.765 C496.97,163.496 454.516,218.733 432.343,244.594 C410.17,218.74 367.718,163.516 367.718,135.765 Z" id="Shape" fill="#000000"></path>
            <path d="M471.922,135.765 C471.922,113.942 454.167,96.188 432.345,96.188 C410.523,96.188 392.768,113.943 392.768,135.765 C392.768,157.587 410.523,175.342 432.345,175.342 C454.167,175.342 471.922,157.588 471.922,135.765 Z M407.796,135.765 C407.796,122.229 418.809,111.217 432.344,111.217 C445.879,111.217 456.892,122.228 456.892,135.765 C456.892,149.302 445.879,160.313 432.344,160.313 C418.809,160.313 407.796,149.302 407.796,135.765 Z" id="Shape" fill="#000000"></path>
            <path d="M119.233,135.765 C119.233,113.942 101.478,96.188 79.656,96.188 C57.834,96.188 40.079,113.943 40.079,135.765 C40.079,157.587 57.834,175.342 79.656,175.342 C101.478,175.342 119.233,157.588 119.233,135.765 Z M55.108,135.765 C55.108,122.229 66.121,111.217 79.656,111.217 C93.191,111.217 104.204,122.228 104.204,135.765 C104.204,149.302 93.191,160.313 79.656,160.313 C66.121,160.313 55.108,149.302 55.108,135.765 Z" id="Shape" fill="#000000"></path>
            <path d="M272.031,487.953 L360.203,487.953 C364.353,487.953 367.718,484.589 367.718,480.438 L367.718,448.375 C367.718,444.224 364.353,440.86 360.203,440.86 L272.031,440.86 C267.881,440.86 264.516,444.224 264.516,448.375 L264.516,480.438 C264.517,484.589 267.881,487.953 272.031,487.953 Z M279.546,455.89 L352.689,455.89 L352.689,472.923 L279.546,472.923 L279.546,455.89 Z" id="Shape" fill="#000000"></path>
            <path d="M151.796,440.861 C147.646,440.861 144.281,444.225 144.281,448.376 L144.281,480.439 C144.281,484.59 147.646,487.954 151.796,487.954 C155.946,487.954 159.311,484.59 159.311,480.439 L159.311,448.376 C159.311,444.225 155.947,440.861 151.796,440.861 Z" id="Shape" fill="#000000"></path>
            <path d="M175.843,440.861 C171.693,440.861 168.328,444.225 168.328,448.376 L168.328,480.439 C168.328,484.59 171.693,487.954 175.843,487.954 C179.993,487.954 183.358,484.59 183.358,480.439 L183.358,448.376 C183.358,444.225 179.994,440.861 175.843,440.861 Z" id="Shape" fill="#000000"></path>
            <path d="M199.89,440.861 C195.74,440.861 192.375,444.225 192.375,448.376 L192.375,480.439 C192.375,484.59 195.74,487.954 199.89,487.954 C204.04,487.954 207.405,484.59 207.405,480.439 L207.405,448.376 C207.405,444.225 204.041,440.861 199.89,440.861 Z" id="Shape" fill="#000000"></path>
            <path d="M223.937,440.861 C219.787,440.861 216.422,444.225 216.422,448.376 L216.422,480.439 C216.422,484.59 219.787,487.954 223.937,487.954 C228.087,487.954 231.452,484.59 231.452,480.439 L231.452,448.376 C231.452,444.225 228.087,440.861 223.937,440.861 Z" id="Shape" fill="#000000"></path>
            <path d="M247.984,440.861 C243.834,440.861 240.469,444.225 240.469,448.376 L240.469,449.378 C240.469,453.529 243.834,456.893 247.984,456.893 C252.134,456.893 255.499,453.529 255.499,449.378 L255.499,448.376 C255.499,444.225 252.134,440.861 247.984,440.861 Z" id="Shape" fill="#000000"></path>
            <path d="M247.984,471.922 C243.834,471.922 240.469,475.286 240.469,479.437 L240.469,480.439 C240.469,484.59 243.834,487.954 247.984,487.954 C252.134,487.954 255.499,484.59 255.499,480.439 L255.499,479.437 C255.499,475.285 252.134,471.922 247.984,471.922 Z" id="Shape" fill="#000000"></path>
        </g>
    </g>
</svg>