<?xml version="1.0" encoding="UTF-8"?>
<svg width="512px" height="512px" viewBox="0 0 512 512" version="1.1" xmlns="http://www.w3.org/2000/svg" xmlns:xlink="http://www.w3.org/1999/xlink">
    <!-- Generator: Sketch 51.3 (57544) - http://www.bohemiancoding.com/sketch -->
    <title>/static/images/icons/database</title>
    <desc>Created with Sketch.</desc>
    <defs></defs>
    <g id="/static/images/icons/database" stroke="none" stroke-width="1" fill="none" fill-rule="evenodd">
        <g id="008-server-2" transform="translate(64.000000, 0.000000)" fill-rule="nonzero">
            <path d="M7.64,47.593 L7.64,464.407 C7.64,486.541 65.06,504.485 135.89,504.485 C206.72,504.485 264.14,486.541 264.14,464.407 L264.14,47.593 L7.64,47.593 Z" id="SVGCleanerId_0" fill="#A1ABB8"></path>
            <path d="M7.64,47.593 L7.64,464.407 C7.64,486.541 65.06,504.485 135.89,504.485 C206.72,504.485 264.14,486.541 264.14,464.407 L264.14,47.593 L7.64,47.593 Z" id="SVGCleanerId_0_1_" fill="#A1ABB8"></path>
            <path d="M7.64,47.593 L7.64,464.407 C7.64,486.541 65.06,504.485 135.89,504.485 C206.72,504.485 264.14,486.541 264.14,464.407 L264.14,47.593 L7.64,47.593 Z" id="SVGCleanerId_0_2_" fill="#A1ABB8"></path>
            <path d="M39.703,47.593 L7.64,47.593 L7.64,464.407 C7.64,474.57 19.752,483.848 39.703,490.913 L39.703,47.593 Z" id="Shape" fill="#8E9AA9"></path>
            <g id="Group" transform="translate(7.000000, 143.000000)" fill="#7C899B">
                <path d="M128.89,313.391 C58.06,313.391 0.64,295.447 0.64,273.313 L0.64,321.407 C0.64,343.541 58.06,361.485 128.89,361.485 C199.72,361.485 257.14,343.541 257.14,321.407 L257.14,273.313 C257.141,295.447 199.721,313.391 128.89,313.391 Z" id="Shape"></path>
                <path d="M128.89,40.859 C58.06,40.859 0.64,22.915 0.64,0.781 L0.64,48.875 C0.64,71.009 58.06,88.953 128.89,88.953 C199.72,88.953 257.14,71.009 257.14,48.875 L257.14,0.781 C257.141,22.915 199.721,40.859 128.89,40.859 Z" id="Shape"></path>
                <path d="M128.89,177.125 C58.06,177.125 0.64,159.181 0.64,137.047 L0.64,185.141 C0.64,207.275 58.06,225.219 128.89,225.219 C199.72,225.219 257.14,207.275 257.14,185.141 L257.14,137.047 C257.141,159.181 199.721,177.125 128.89,177.125 Z" id="Shape"></path>
            </g>
            <g id="Group" transform="translate(7.000000, 143.000000)" fill="#69788D">
                <path d="M0.64,273.313 L0.64,321.407 C0.64,331.57 12.752,340.848 32.703,347.913 L32.703,299.819 C12.752,292.754 0.64,283.476 0.64,273.313 Z" id="Shape"></path>
                <path d="M0.64,0.781 L0.64,48.875 C0.64,59.038 12.752,68.316 32.703,75.381 L32.703,27.287 C12.752,20.222 0.64,10.944 0.64,0.781 Z" id="Shape"></path>
                <path d="M0.64,137.047 L0.64,185.141 C0.64,195.304 12.752,204.582 32.703,211.647 L32.703,163.553 C12.752,156.488 0.64,147.21 0.64,137.047 Z" id="Shape"></path>
            </g>
            <ellipse id="Oval" fill="#D9DDE2" cx="135.89" cy="47.593" rx="128.25" ry="40.078"></ellipse>
            <path d="M376.361,480.438 L200.016,480.438 L200.016,368.219 C200.016,350.511 214.371,336.156 232.079,336.156 L344.298,336.156 C362.006,336.156 376.361,350.511 376.361,368.219 L376.361,480.438 Z" id="Shape" fill="#3CBDE8"></path>
            <path d="M256.125,336.157 L232.078,336.157 C214.37,336.157 200.015,350.512 200.015,368.22 L200.015,480.439 L224.062,480.439 L224.062,368.219 C224.063,350.512 238.418,336.157 256.125,336.157 Z" id="Shape" fill="#2C9DD4"></path>
            <path d="M304.219,384.25 C304.219,375.396 297.042,368.219 288.188,368.219 C279.334,368.219 272.157,375.396 272.157,384.25 C272.157,389.81 274.989,394.705 279.287,397.581 L272.157,448.375 L304.22,448.375 L297.09,397.581 C301.388,394.706 304.219,389.81 304.219,384.25 Z" id="Shape" fill="#2A7DB5"></path>
            <path d="M351.812,329.366 L351.812,264.015 C351.812,242.192 334.057,224.438 312.235,224.438 L271.656,224.438 L271.656,47.593 C271.656,16.347 203.357,0 135.89,0 C68.423,0 0.125,16.347 0.125,47.593 L0.125,464.407 C0.125,495.652 68.423,512 135.89,512 C186.546,512 232.228,502.953 255.112,488.39 C255.326,488.254 255.531,488.107 255.727,487.953 L376.36,487.953 C380.511,487.953 383.875,484.589 383.875,480.438 L383.875,368.219 C383.875,348.966 370.053,332.888 351.812,329.366 Z M312.235,239.468 C325.771,239.468 336.783,250.48 336.783,264.016 L336.783,328.642 L271.656,328.642 L271.656,239.468 L312.235,239.468 Z M194.372,356.202 C176.49,359.147 156.296,360.705 135.891,360.705 C62.189,360.705 15.155,341.418 15.155,328.141 L15.155,303.083 C38.969,319.277 87.64,327.64 135.891,327.64 C167.674,327.64 199.64,324.011 224.564,316.906 L224.564,329.366 C210.292,332.122 198.729,342.564 194.372,356.202 Z M186.77,180.666 C186.306,176.542 182.577,173.569 178.463,174.038 C164.839,175.569 150.515,176.345 135.891,176.345 C62.189,176.345 15.155,157.058 15.155,143.781 L15.155,70.629 C38.969,86.823 87.64,95.186 135.891,95.186 C184.142,95.186 232.813,86.823 256.628,70.629 L256.627,143.781 C256.627,150.518 243.297,160.605 213.517,167.955 C209.649,168.909 207.15,172.868 207.958,176.77 C208.811,180.885 213.032,183.557 217.118,182.546 C234.118,178.35 247.414,172.963 256.628,166.677 L256.628,191.874 C256.628,205.151 209.595,224.438 135.892,224.438 C62.189,224.438 15.155,205.152 15.155,191.875 L15.155,166.817 C38.969,183.011 87.64,191.374 135.891,191.374 C151.075,191.374 165.963,190.565 180.141,188.973 C184.265,188.509 187.233,184.79 186.77,180.666 Z M135.89,239.468 C184.141,239.468 232.812,231.105 256.626,214.911 L256.626,225.163 C238.385,228.685 224.563,244.762 224.563,264.016 L224.563,301.097 C203.567,307.684 173.138,312.61 135.89,312.61 C62.188,312.61 15.154,293.323 15.154,280.046 L15.154,214.91 C38.968,231.104 87.639,239.468 135.89,239.468 Z M256.626,280.047 C256.626,284.783 250.637,290.283 239.593,295.4 L239.593,264.016 C239.593,253.101 246.756,243.831 256.626,240.649 L256.626,280.047 Z M15.155,351.177 C38.969,367.371 87.64,375.734 135.891,375.734 C155.482,375.734 174.926,374.343 192.502,371.708 L192.502,444.677 C175.088,447.426 155.587,448.877 135.891,448.877 C62.189,448.877 15.155,429.59 15.155,416.313 L15.155,351.177 Z M239.593,311.84 C246.128,309.236 251.872,306.316 256.626,303.083 L256.626,328.642 L239.593,328.642 L239.593,311.84 Z M135.89,15.029 C209.593,15.029 256.626,34.316 256.626,47.593 C256.626,60.87 209.593,80.157 135.89,80.157 C62.188,80.157 15.154,60.87 15.154,47.593 C15.154,34.316 62.188,15.029 135.89,15.029 Z M135.89,496.971 C62.188,496.971 15.154,477.684 15.154,464.407 L15.154,439.349 C38.968,455.543 87.639,463.906 135.89,463.906 C155.481,463.906 174.925,462.515 192.501,459.88 L192.501,480.438 C192.501,484.589 195.865,487.953 200.016,487.953 L216.012,487.953 C194.037,493.647 165.684,496.971 135.89,496.971 Z M368.845,472.924 L207.53,472.924 L207.53,368.219 C207.53,354.683 218.542,343.671 232.078,343.671 L344.297,343.671 C357.833,343.671 368.845,354.683 368.845,368.219 L368.845,472.924 Z" id="Shape" fill="#000000"></path>
            <path d="M288.188,360.704 C275.205,360.704 264.642,371.267 264.642,384.25 C264.642,390.436 267.057,396.28 271.271,400.627 L264.715,447.33 C264.09,451.785 267.661,455.89 272.157,455.89 L304.22,455.89 C308.716,455.89 312.287,451.785 311.662,447.33 L305.106,400.627 C309.32,396.28 311.735,390.436 311.735,384.25 C311.734,371.267 301.171,360.704 288.188,360.704 Z M289.648,398.627 L295.577,440.861 L280.8,440.861 L286.729,398.627 C287.13,395.771 285.862,392.939 283.466,391.337 C281.091,389.747 279.673,387.1 279.673,384.252 C279.673,379.556 283.493,375.735 288.19,375.735 C292.886,375.735 296.707,379.555 296.707,384.252 C296.707,387.1 295.288,389.747 292.914,391.337 C290.514,392.938 289.247,395.771 289.648,398.627 Z" id="Shape" fill="#000000"></path>
        </g>
    </g>
</svg>