<?xml version="1.0" encoding="UTF-8"?>
<svg width="512px" height="512px" viewBox="0 0 512 512" version="1.1" xmlns="http://www.w3.org/2000/svg" xmlns:xlink="http://www.w3.org/1999/xlink">
    <!-- Generator: Sketch 51.3 (57544) - http://www.bohemiancoding.com/sketch -->
    <title>/static/images/icons/experience</title>
    <desc>Created with Sketch.</desc>
    <defs></defs>
    <g id="/static/images/icons/experience" stroke="none" stroke-width="1" fill="none" fill-rule="evenodd">
        <g id="037-space-ship" fill-rule="nonzero">
            <path d="M198.769,313.23 C259.174,373.635 285.032,449.541 266.34,499.026 C279.682,491.904 292.129,482.794 303.265,471.658 C369.537,405.386 364.405,292.804 291.8,220.199 C219.195,147.594 106.614,142.463 40.341,208.735 C29.206,219.87 20.096,232.318 12.973,245.66 C62.458,226.967 138.364,252.826 198.769,313.23 Z" id="Shape" fill="#5A6B96"></path>
            <path d="M491.531,169.483 C487.089,185.913 480.744,199.867 471.772,208.839 C427.758,262.592 357.337,321.134 289.186,361.019 L150.972,222.804 C190.868,154.653 249.41,84.233 303.163,40.218 C312.124,31.257 326.089,24.902 342.508,20.459 L491.531,169.483 Z" id="Shape" fill="#EFEFEF"></path>
            <path d="M491.531,169.483 L342.508,20.459 C403.428,3.964 498.298,13.703 498.298,13.703 C498.298,13.703 508.037,108.564 491.531,169.483 Z" id="Shape" fill="#FF7D46"></path>
            <circle id="Oval" fill="#45CCFF" cx="320.271" cy="191.73" r="48.641"></circle>
            <path d="M289.187,361.019 C275.73,368.91 262.37,376.054 249.323,382.291 C209.449,342.427 169.574,302.553 129.7,262.679 C135.948,249.622 143.092,236.262 150.972,222.805 L289.187,361.019 Z" id="Shape" fill="#FF7D46"></path>
            <path d="M209.64,343.634 C173.197,380.077 123.018,388.983 123.018,388.983 C123.018,388.983 131.925,338.804 168.367,302.361 C204.809,265.918 254.989,257.012 254.989,257.012 C254.989,257.012 246.083,307.19 209.64,343.634 Z" id="Shape" fill="#5A6B96"></path>
            <g id="Group" fill="#231F20">
                <path d="M509.051,12.6 C508.528,7.504 504.499,3.475 499.402,2.951 C495.447,2.546 401.831,-6.799 339.691,10.024 C339.689,10.024 339.687,10.025 339.684,10.025 C320.292,15.272 305.571,22.725 295.918,32.178 C258.19,63.147 218.264,106.668 183.755,153.596 C128.776,145.454 72.755,161.034 32.697,201.091 C21.046,212.742 11.201,226.024 3.437,240.568 C1.316,244.54 1.881,249.41 4.852,252.793 C7.823,256.174 12.577,257.362 16.792,255.771 C45.517,244.92 83.711,250.902 121.882,270.134 C121.94,270.196 121.994,270.26 122.055,270.321 C132.646,280.912 143.236,291.501 153.827,302.091 C121.152,339.429 112.737,385.045 112.373,387.093 C111.756,390.569 112.876,394.129 115.372,396.625 C117.417,398.67 120.173,399.791 123.015,399.791 C123.643,399.791 124.275,399.736 124.904,399.625 C126.952,399.262 172.572,390.845 209.909,358.168 C220.499,368.758 231.088,379.347 241.678,389.935 C241.733,389.99 241.793,390.036 241.849,390.09 C261.093,428.272 267.079,466.476 256.226,495.208 C254.635,499.42 255.822,504.176 259.204,507.148 C261.222,508.921 263.77,509.837 266.34,509.837 C268.078,509.837 269.827,509.419 271.429,508.563 C285.973,500.799 299.255,490.954 310.906,479.303 C345.134,445.076 362.712,398.379 360.407,347.813 C360.106,341.218 359.467,334.662 358.504,328.163 C405.386,293.679 448.862,253.788 479.81,216.083 C489.267,206.429 496.719,191.704 501.964,172.305 C501.964,172.304 501.964,172.303 501.965,172.302 C518.799,110.16 509.456,16.554 509.051,12.6 Z M488.305,23.7 C489.949,45.293 493.089,102.062 485.191,147.857 L364.139,26.804 C409.91,18.923 466.707,22.059 488.305,23.7 Z M48.203,228.814 C44.216,228.814 40.301,228.995 36.468,229.357 C40.039,224.813 43.884,220.478 47.985,216.378 C80.353,184.01 124.73,169.981 169.47,173.679 C159.531,188.124 150.181,202.761 141.647,217.34 L141.646,217.341 C135.638,227.6 130.079,237.767 125.042,247.691 C118.538,244.662 111.989,241.95 105.412,239.603 C85.286,232.419 66.01,228.814 48.203,228.814 Z M169.191,286.88 C160.394,278.084 151.597,269.288 142.8,260.491 C146.074,253.927 149.599,247.235 153.349,240.466 L186.672,273.789 C180.785,277.632 174.899,281.978 169.191,286.88 Z M138.361,373.639 C143.932,356.82 155.204,330.809 176.011,310.002 C196.818,289.195 222.832,277.923 239.648,272.352 C234.077,289.171 222.805,315.182 201.998,335.989 C181.19,356.797 155.176,368.069 138.361,373.639 Z M251.511,369.194 C242.715,360.4 233.918,351.603 225.122,342.807 C230.024,337.1 234.369,331.214 238.211,325.329 L271.529,358.647 C264.765,362.396 258.074,365.921 251.511,369.194 Z M338.814,348.796 C340.84,393.219 325.501,434.137 295.622,464.016 C291.521,468.117 287.187,471.962 282.643,475.533 C284.621,454.586 281.189,431.22 272.396,406.59 C270.047,400.012 267.335,393.46 264.305,386.955 C274.231,381.92 284.394,376.359 294.644,370.35 C294.645,370.35 294.646,370.349 294.646,370.349 C309.253,361.8 323.918,352.432 338.391,342.474 C338.567,344.576 338.718,346.683 338.814,348.796 Z M469.958,193.808 C469.84,193.678 469.73,193.542 469.605,193.417 L439.708,163.52 C435.487,159.299 428.643,159.299 424.421,163.52 C420.2,167.741 420.2,174.585 424.421,178.806 L454.318,208.703 C454.957,209.342 455.662,209.873 456.402,210.318 C414.608,258.832 352.645,310.202 290.89,347.436 L249.306,305.852 C261.556,281.067 265.391,260.27 265.633,258.902 C266.25,255.426 265.13,251.866 262.634,249.37 C260.136,246.873 256.577,245.754 253.102,246.371 C251.734,246.614 230.937,250.448 206.152,262.698 L164.559,221.105 C201.75,159.437 253.025,97.566 301.468,55.778 C301.691,56.048 301.925,56.311 302.177,56.563 L365.696,120.082 C367.807,122.193 370.573,123.248 373.339,123.248 C376.105,123.248 378.872,122.192 380.982,120.082 C385.203,115.861 385.203,109.017 380.982,104.796 L318.211,42.025 C323.78,38.462 330.853,35.319 339.39,32.63 L409.385,102.625 L479.364,172.604 C476.673,181.151 473.526,188.235 469.958,193.808 Z" id="Shape"></path>
                <path d="M394.713,133.812 C390.492,138.033 390.492,144.877 394.713,149.098 L395.794,150.179 C397.905,152.29 400.671,153.345 403.437,153.345 C406.203,153.345 408.97,152.29 411.08,150.179 C415.301,145.958 415.301,139.114 411.08,134.893 L409.999,133.812 C405.778,129.59 398.934,129.59 394.713,133.812 Z" id="Shape"></path>
                <path d="M320.269,132.282 C304.389,132.282 289.46,138.466 278.232,149.694 C255.053,172.873 255.053,210.589 278.232,233.768 C289.46,244.996 304.39,251.18 320.269,251.18 C336.149,251.18 351.078,244.996 362.306,233.768 C373.535,222.54 379.718,207.61 379.718,191.731 C379.718,175.852 373.534,160.922 362.306,149.694 C351.078,138.466 336.149,132.282 320.269,132.282 Z M347.02,218.483 C339.874,225.629 330.374,229.563 320.269,229.563 C310.164,229.563 300.664,225.627 293.518,218.483 C278.768,203.733 278.768,179.732 293.518,164.982 C300.663,157.836 310.164,153.902 320.269,153.902 C330.374,153.902 339.874,157.836 347.02,164.982 C354.165,172.128 358.1,181.628 358.1,191.733 C358.101,201.837 354.165,211.337 347.02,218.483 Z" id="Shape"></path>
                <path d="M10.809,420.282 C13.575,420.282 16.342,419.227 18.452,417.116 L92.923,342.645 C97.144,338.424 97.144,331.58 92.923,327.359 C88.702,323.138 81.858,323.138 77.636,327.359 L3.166,401.83 C-1.055,406.051 -1.055,412.895 3.166,417.116 C5.277,419.226 8.043,420.282 10.809,420.282 Z" id="Shape"></path>
                <path d="M169.355,419.076 L94.883,493.548 C90.662,497.769 90.662,504.613 94.883,508.834 C96.994,510.945 99.76,512 102.526,512 C105.292,512 108.059,510.944 110.169,508.834 L184.641,434.362 C188.862,430.141 188.862,423.297 184.641,419.076 C180.421,414.855 173.577,414.855 169.355,419.076 Z" id="Shape"></path>
                <path d="M95.031,416.969 C90.81,412.748 83.966,412.748 79.744,416.969 L4.248,492.465 C0.027,496.686 0.027,503.53 4.248,507.751 C6.359,509.862 9.125,510.917 11.891,510.917 C14.657,510.917 17.424,509.862 19.534,507.751 L95.03,432.255 C99.251,428.035 99.251,421.19 95.031,416.969 Z" id="Shape"></path>
            </g>
        </g>
    </g>
</svg>