<?xml version="1.0" encoding="UTF-8"?>
<svg width="512px" height="512px" viewBox="0 0 512 512" version="1.1" xmlns="http://www.w3.org/2000/svg" xmlns:xlink="http://www.w3.org/1999/xlink">
    <!-- Generator: Sketch 51.3 (57544) - http://www.bohemiancoding.com/sketch -->
    <title>/static/images/icons/filemaker</title>
    <desc>Created with Sketch.</desc>
    <defs>
        <linearGradient x1="63.7087823%" y1="38.0495049%" x2="36.9453127%" y2="61.6677703%" id="linearGradient-1">
            <stop stop-color="#F6F6F6" offset="0%"></stop>
            <stop stop-color="#DDE5E9" offset="100%"></stop>
        </linearGradient>
        <linearGradient x1="46.6211793%" y1="27.8464015%" x2="53.0703766%" y2="70.1037762%" id="linearGradient-2">
            <stop stop-color="#F6F6F6" offset="0%"></stop>
            <stop stop-color="#F3F4F5" offset="44.55%"></stop>
            <stop stop-color="#E9EDF0" offset="81.16%"></stop>
            <stop stop-color="#E0E8ED" offset="100%"></stop>
        </linearGradient>
    </defs>
    <g id="/static/images/icons/filemaker" stroke="none" stroke-width="1" fill="none" fill-rule="evenodd">
        <g id="FileMaker_Temp" transform="translate(55.000000, 32.000000)">
            <g id="filemaker-vector-logo" transform="translate(-50.000000, -25.000000)">
                <polygon id="Shape" fill="#231815" fill-rule="nonzero" points="64.3 472.2 54.5 472.2 54.5 402.4 98.1 402.4 98.1 411 64.3 411 64.3 432.6 95.9 432.6 95.9 441 64.3 441"></polygon>
                <g id="Group" transform="translate(66.000000, 25.000000)">
                    <path d="M42,389.5 C38.7,389.5 35.9,386.8 35.9,383.6 C35.9,380.3 38.7,377.6 42,377.6 C45.4,377.6 48.2,380.2 48.2,383.6 C48.2,386.9 45.4,389.5 42,389.5 Z M46.6,447.2 L37.3,447.2 L37.3,400.5 L46.6,400.5 L46.6,447.2 Z" id="Shape" fill="#231815" fill-rule="nonzero"></path>
                    <rect id="Rectangle-path" fill="#231815" fill-rule="nonzero" x="58.1" y="372.7" width="9.3" height="74.5"></rect>
                    <path d="M122,426.6 L85,426.6 C85.3,434.6 92,440.8 100.2,440.8 C106.5,440.8 111.1,437.6 113.8,433.7 L120.3,438.9 C115.3,445.4 108.5,448.5 100.2,448.5 C86,448.5 75.6,438.6 75.6,424 C75.6,409.4 86,399.3 99.7,399.3 C113.5,399.3 122.2,408.7 122.2,423.5 C122.1,424.4 122.1,425.5 122,426.6 Z M112.8,419.7 C112.6,412.3 108.3,406.5 99.7,406.5 C91.7,406.5 85.6,412.4 85,419.7 L112.8,419.7 Z" id="Shape" fill="#231815" fill-rule="nonzero"></path>
                    <polygon id="Shape" fill="#231815" fill-rule="nonzero" points="166.7 431 166.9 431 187.5 377.4 202.7 377.4 202.7 447.2 192.9 447.2 192.9 388.8 192.7 388.8 169.5 447.2 163.3 447.2 140.3 388.8 140.1 388.8 140.1 447.2 130.6 447.2 130.6 377.4 145.8 377.4"></polygon>
                    <path d="M243.3,416.9 C243.3,410 238.7,406.7 231.8,406.7 C226.6,406.7 221.6,409 218.5,412.1 L213.6,406.2 C218.1,401.9 225.1,399.2 232.7,399.2 C246.1,399.2 252.2,407.2 252.2,417.5 L252.2,437.9 C252.2,441.1 252.4,444.9 252.9,447.2 L244.5,447.2 C244,445.1 243.7,442.7 243.7,440.5 L243.4,440.5 C240.1,445.5 234.7,448.4 227.7,448.4 C220.3,448.4 210.7,444.8 210.7,434 C210.7,419.9 227.5,418.2 243.2,418.2 L243.2,416.9 L243.3,416.9 Z M241,424.9 C231.8,424.9 220.2,425.9 220.2,433.8 C220.2,439.3 225.1,441.1 229.8,441.1 C238.5,441.1 243.3,435.3 243.3,427.4 L243.3,424.9 L241,424.9 Z" id="Shape" fill="#231815" fill-rule="nonzero"></path>
                    <polygon id="Shape" fill="#231815" fill-rule="nonzero" points="272.1 420.7 272.4 420.7 292 400.4 304.5 400.4 282.6 421.6 306.3 447.2 293.5 447.2 272.4 422.9 272.1 422.9 272.1 447.2 262.9 447.2 262.9 372.7 272.1 372.7"></polygon>
                    <path d="M351.4,426.6 L314.3,426.6 C314.6,434.6 321.3,440.8 329.5,440.8 C335.8,440.8 340.4,437.6 343.1,433.7 L349.6,438.9 C344.6,445.4 337.8,448.5 329.5,448.5 C315.3,448.5 304.9,438.6 304.9,424 C304.9,409.4 315.4,399.3 329,399.3 C342.8,399.3 351.5,408.7 351.5,423.5 C351.5,424.4 351.5,425.5 351.4,426.6 Z M342.1,419.7 C341.9,412.3 337.6,406.5 329,406.5 C321,406.5 314.9,412.4 314.3,419.7 L342.1,419.7 Z" id="Shape" fill="#231815" fill-rule="nonzero"></path>
                    <path d="M359.1,400.4 L367.9,400.4 C368.1,402.8 368.3,406.3 368.3,408.3 L368.6,408.3 C371.2,402.9 376.6,399.1 382.9,399.1 C384.2,399.1 385.5,399.2 386.5,399.5 L386.1,408.1 C384.9,407.8 383.3,407.6 381.9,407.6 C373,407.6 368.8,414.8 368.8,422.6 L368.8,447.1 L359.5,447.1 L359.5,410.4 C359.5,408 359.4,403.5 359.1,400.4" id="Shape" fill="#231815" fill-rule="nonzero"></path>
                    <path d="M381.3,437.6 C384.5,437.6 387,440.1 387,443.3 C387,446.5 384.4,448.9 381.3,448.9 C378.2,448.9 375.6,446.4 375.6,443.3 C375.6,440.1 378.2,437.6 381.3,437.6 Z M381.3,448.1 C384,448.1 386.1,445.9 386.1,443.3 C386.1,440.6 384,438.5 381.3,438.5 C378.6,438.5 376.5,440.6 376.5,443.3 C376.5,445.9 378.7,448.1 381.3,448.1 Z M379.1,440.1 L381.3,440.1 C382.5,440.1 383.7,440.6 383.7,442 C383.7,442.9 383.1,443.5 382.2,443.7 L383.9,446.5 L382.5,446.5 L381,443.8 L380.2,443.8 L380.2,446.5 L379.1,446.5 L379.1,440.1 Z M381.2,442.9 C381.8,442.9 382.6,442.7 382.6,442 C382.6,441.3 381.9,441.1 381.3,441.1 L380.2,441.1 L380.2,442.9 L381.2,442.9 Z" id="Shape" fill="#231815" fill-rule="nonzero"></path>
                    <path d="M278.7,345.6 C278.6,345.9 278.4,346 278.1,346.2 C263.7,272.8 247.7,197.7 233.1,124 C231.2,114.4 229.7,100.2 224.9,94 C221,89 211.7,87.5 204.2,84.9 C198.6,83 190.7,81.8 187.2,78.7 C183.5,75.4 184,66.5 181,62.6 C180.6,62.1 179.4,61.2 178.5,60.6 C173.6,57.6 165.7,56.5 159.5,54.7 C146.4,50.8 134.9,47.1 121.3,43.1 C116,41.5 102.7,35.2 98.6,39.4 C96.5,41.6 96.9,48.9 93.8,49.9 C91.2,50.8 87,48.1 84.7,47.3 C81.2,46.1 78.6,45.5 75.6,44.5 C75.7,43.6 75.9,42.9 76.2,42.2 C78.1,35 80.4,28 82.7,20.4 C84.5,14.2 85.6,2.4 91.2,0.6 C95.6,-0.8 103,2.4 108.2,3.7 C141.1,12.3 172.1,20.6 205.3,29.2 C210.9,30.7 217.7,33.6 222,32.9 C228.5,31.8 229,22.1 234.7,20.4 C239.9,18.9 249.6,23.1 254.2,24.4 C266.7,27.7 279.1,30.8 292.1,34.3 C297.4,35.7 307,37.1 309.1,41.1 C311.3,45.4 308.7,53.5 312.2,56.7 C315.4,59.6 323.8,60.5 329.7,62.1 C339.3,64.6 350,65.2 351.5,74.3 C352.3,78.9 349.4,86.4 347.8,92.1 C330.3,154.4 313.8,215.9 296.8,277.8 C290.9,300.4 284.9,322.7 278.7,345.6" id="Shape" fill="#00A8E1"></path>
                </g>
                <polygon id="Shape" fill="url(#linearGradient-1)" fill-rule="nonzero" points="142.8 67.6 135 74.4 128.6 67.1 136.4 60.3"></polygon>
                <path d="M343.3,376.3 C263.7,338.8 186.5,299 106.7,261.7 C90,196.7 70.1,126 52.9,59.3 C51.7,54.7 49.4,48.2 50.3,44.9 C53.3,34.3 72,43.6 79.3,46 C97.8,52 114.4,57.2 132.8,63.3 L144.1,67.3 C147,68.3 149.6,69 153.2,70.1 C155.4,70.8 159.6,73.5 162.2,72.6 C165.3,71.6 164.9,64.3 167,62.1 C171,57.9 184.4,64.2 189.6,65.8 C203.2,69.8 214.7,73.5 227.8,77.4 C234,79.2 241.9,80.3 246.8,83.3 C247.7,83.9 248.9,84.8 249.4,85.3 C252.4,89.2 251.9,98.1 255.6,101.4 C259.1,104.5 267,105.7 272.6,107.6 C280.1,110.1 289.4,111.6 293.3,116.7 C298,122.9 299.6,137.1 301.5,146.7 C316.1,220.4 331.8,293.1 346.2,366.5 L343.3,376.3 Z" id="Shape" fill="url(#linearGradient-2)"></path>
            </g>
        </g>
    </g>
</svg>