<?xml version="1.0" encoding="UTF-8"?>
<svg width="512px" height="512px" viewBox="0 0 512 512" version="1.1" xmlns="http://www.w3.org/2000/svg" xmlns:xlink="http://www.w3.org/1999/xlink">
    <!-- Generator: Sketch 51.3 (57544) - http://www.bohemiancoding.com/sketch -->
    <title>/static/images/icons/languages</title>
    <desc>Created with Sketch.</desc>
    <defs></defs>
    <g id="/static/images/icons/languages" stroke="none" stroke-width="1" fill="none" fill-rule="evenodd">
        <g id="009-chat" fill-rule="nonzero">
            <path d="M296.078,167.833 L39.577,167.833 C21.869,167.833 7.514,182.188 7.514,199.896 L7.514,400.287 C7.514,417.995 21.869,432.35 39.577,432.35 L95.687,432.35 L87.671,504.491 L176.511,432.35 L296.078,432.35 C313.786,432.35 328.141,417.995 328.141,400.287 L328.141,199.896 C328.141,182.188 313.786,167.833 296.078,167.833 Z" id="Shape" fill="#FFDB66"></path>
            <path d="M31.562,376.24 L31.562,175.849 C31.562,173.374 31.852,170.967 32.383,168.654 C18.141,171.921 7.515,184.663 7.515,199.896 L7.515,400.287 C7.515,417.995 21.87,432.35 39.578,432.35 L95.688,432.35 L87.672,504.491 L111.719,480.444 L119.735,408.303 L63.625,408.303 C45.917,408.303 31.562,393.948 31.562,376.24 Z" id="Shape" fill="#F7C14D"></path>
            <path d="M504.485,147.794 C504.485,70.323 436.299,7.52 352.188,7.52 C268.077,7.52 199.89,70.323 199.89,147.794 C199.89,225.265 268.076,288.068 352.187,288.068 C360.905,288.068 369.449,287.384 377.766,286.087 L472.422,336.162 L440.359,262.183 C479.169,236.759 504.485,194.999 504.485,147.794 Z" id="Shape" fill="#FF8C78"></path>
            <path d="M393.798,262.041 C385.48,263.337 376.937,264.022 368.219,264.022 C284.108,264.022 215.922,201.219 215.922,123.748 C215.922,101.937 221.328,81.289 230.97,62.877 C211.474,86.45 199.89,115.875 199.89,147.795 C199.89,225.266 268.076,288.069 352.187,288.069 C360.905,288.069 369.449,287.385 377.766,286.088 L472.422,336.163 L454.131,293.959 L393.798,262.041 Z" id="Shape" fill="#DB6B5E"></path>
            <path d="M449.72,264.883 C488.836,236.972 512,193.646 512,147.794 C512,112.057 498.029,77.566 472.659,50.674 C469.81,47.654 465.055,47.516 462.036,50.364 C459.017,53.212 458.879,57.968 461.726,60.987 C484.453,85.079 496.97,115.907 496.97,147.794 C496.97,190.574 474.268,230.985 436.241,255.896 C433.182,257.9 432.01,261.815 433.465,265.17 L457.015,319.51 L381.281,279.445 C379.849,278.688 378.212,278.414 376.61,278.662 C368.554,279.917 360.337,280.554 352.187,280.554 C272.353,280.554 207.404,220.999 207.404,147.795 C207.404,74.591 272.354,15.036 352.188,15.036 C382.344,15.036 411.244,23.454 435.767,39.384 C439.249,41.644 443.902,40.656 446.162,37.175 C448.422,33.694 447.434,29.041 443.954,26.78 C416.988,9.264 385.256,0.006 352.188,0.006 C264.067,0.006 192.376,66.303 192.376,147.795 C192.376,152.014 192.579,156.189 192.955,160.319 L39.577,160.319 C17.755,160.319 0,178.074 0,199.897 L0,400.288 C0,422.111 17.755,439.865 39.577,439.865 L87.291,439.865 L80.202,503.662 C79.865,506.692 81.393,509.627 84.07,511.088 C86.718,512.535 90.066,512.227 92.408,510.326 L179.177,439.866 L296.077,439.866 C317.9,439.866 335.654,422.111 335.654,400.289 L335.654,294.796 C341.09,295.315 346.604,295.584 352.186,295.584 C360.269,295.584 368.412,295.013 376.429,293.884 L468.907,342.807 C471.797,344.335 475.442,343.78 477.746,341.466 C479.895,339.309 480.526,335.97 479.315,333.176 L449.72,264.883 Z M320.626,400.287 C320.626,413.823 309.613,424.835 296.078,424.835 L176.512,424.835 C174.787,424.835 173.114,425.429 171.775,426.516 L97.165,487.102 L103.156,433.18 C103.644,428.795 100.099,424.836 95.687,424.836 L39.577,424.836 C26.042,424.836 15.029,413.825 15.029,400.288 L15.029,199.897 C15.029,186.361 26.042,175.349 39.577,175.349 L195.173,175.349 C207.232,234.241 257.19,280.885 320.626,292.683 L320.626,400.287 Z" id="Shape" fill="#000000"></path>
        </g>
    </g>
</svg>