<?xml version="1.0" encoding="UTF-8"?>
<svg width="512px" height="512px" viewBox="0 0 512 512" version="1.1" xmlns="http://www.w3.org/2000/svg" xmlns:xlink="http://www.w3.org/1999/xlink">
    <!-- Generator: Sketch 51.3 (57544) - http://www.bohemiancoding.com/sketch -->
    <title>/static/images/icons/reporting</title>
    <desc>Created with Sketch.</desc>
    <defs></defs>
    <g id="/static/images/icons/reporting" stroke="none" stroke-width="1" fill="none" fill-rule="evenodd">
        <g id="016-analytics" fill-rule="nonzero">
            <rect id="Rectangle-path" fill="#56677E" x="199.89" y="360.204" width="112.219" height="144.282"></rect>
            <rect id="Rectangle-path" fill="#435670" x="199.89" y="360.204" width="112.219" height="64.125"></rect>
            <rect id="Rectangle-path" fill="#ECEEF1" x="7.515" y="7.515" width="496.971" height="392.767"></rect>
            <rect id="Rectangle-path" fill="#D9DDE2" x="7.515" y="7.515" width="24.047" height="392.767"></rect>
            <rect id="Rectangle-path" fill="#8E9AA9" x="7.515" y="336.157" width="496.971" height="64.125"></rect>
            <rect id="Rectangle-path" fill="#7C899B" x="7.515" y="336.157" width="24.047" height="64.125"></rect>
            <rect id="Rectangle-path" fill="#F7C14D" x="159.812" y="143.781" width="48.094" height="144.282"></rect>
            <rect id="Rectangle-path" fill="#F09B24" x="159.812" y="143.781" width="16.031" height="144.282"></rect>
            <rect id="Rectangle-path" fill="#FF8C78" x="247.984" y="111.718" width="48.094" height="176.344"></rect>
            <rect id="Rectangle-path" fill="#DB6B5E" x="247.984" y="111.718" width="16.031" height="176.344"></rect>
            <rect id="Rectangle-path" fill="#3CBDE8" x="336.157" y="71.64" width="48.094" height="216.423"></rect>
            <rect id="Rectangle-path" fill="#2C9DD4" x="336.157" y="71.64" width="16.031" height="216.423"></rect>
            <path d="M504.485,0 L7.515,0 C3.364,0 0,3.365 0,7.515 L0,400.282 C0,404.432 3.364,407.797 7.515,407.797 L192.376,407.797 L192.376,496.971 L175.844,496.971 C171.693,496.971 168.329,500.336 168.329,504.486 C168.329,508.636 171.693,512.001 175.844,512.001 L336.157,512.001 C340.308,512.001 343.672,508.636 343.672,504.486 C343.672,500.336 340.308,496.971 336.157,496.971 L319.625,496.971 L319.625,407.797 L504.486,407.797 C508.637,407.797 512.001,404.432 512.001,400.282 L512.001,7.515 C512,3.365 508.636,0 504.485,0 Z M304.595,496.971 L207.405,496.971 L207.405,407.797 L304.595,407.797 L304.595,496.971 Z M15.029,392.768 L15.029,343.671 L395.94,343.671 C400.091,343.671 403.455,340.306 403.455,336.156 C403.455,332.006 400.091,328.641 395.94,328.641 L15.029,328.641 L15.029,15.029 L496.97,15.029 L496.97,328.642 L432.344,328.642 C428.193,328.642 424.829,332.007 424.829,336.157 C424.829,340.307 428.193,343.672 432.344,343.672 L496.97,343.672 L496.97,392.768 L15.029,392.768 Z" id="Shape" fill="#000000"></path>
            <path d="M264.016,360.704 L247.985,360.704 C243.834,360.704 240.47,364.069 240.47,368.219 C240.47,372.369 243.834,375.734 247.985,375.734 L264.016,375.734 C268.167,375.734 271.531,372.369 271.531,368.219 C271.531,364.069 268.167,360.704 264.016,360.704 Z" id="Shape" fill="#000000"></path>
            <path d="M439.859,288.063 C439.859,283.913 436.495,280.548 432.344,280.548 L391.765,280.548 L391.765,71.64 C391.765,67.49 388.401,64.125 384.25,64.125 L336.156,64.125 C332.005,64.125 328.641,67.49 328.641,71.64 L328.641,280.548 L303.592,280.548 L303.592,111.718 C303.592,107.568 300.228,104.203 296.077,104.203 L247.983,104.203 C243.832,104.203 240.468,107.568 240.468,111.718 L240.468,280.548 L215.419,280.548 L215.419,143.781 C215.419,139.631 212.055,136.266 207.904,136.266 L159.81,136.266 C155.659,136.266 152.295,139.631 152.295,143.781 L152.295,280.548 L103.199,280.548 L103.199,63.624 C103.199,59.474 99.835,56.109 95.684,56.109 C91.533,56.109 88.169,59.474 88.169,63.624 L88.169,88.172 L79.652,88.172 C75.501,88.172 72.137,91.537 72.137,95.687 C72.137,99.837 75.501,103.202 79.652,103.202 L88.169,103.202 L88.169,152.298 L79.652,152.298 C75.501,152.298 72.137,155.663 72.137,159.813 C72.137,163.963 75.501,167.328 79.652,167.328 L88.169,167.328 L88.169,216.424 L79.652,216.424 C75.501,216.424 72.137,219.789 72.137,223.939 C72.137,228.089 75.501,231.454 79.652,231.454 L88.169,231.454 L88.169,288.065 C88.169,292.215 91.533,295.58 95.684,295.58 L432.342,295.58 C436.496,295.577 439.859,292.213 439.859,288.063 Z M167.327,280.548 L167.327,151.296 L200.392,151.296 L200.392,280.548 L167.327,280.548 Z M255.499,280.548 L255.499,119.233 L288.564,119.233 L288.564,280.548 L255.499,280.548 Z M343.671,280.548 L343.671,79.155 L376.736,79.155 L376.736,280.548 L343.671,280.548 Z" id="Shape" fill="#000000"></path>
        </g>
    </g>
</svg>