<?xml version="1.0" encoding="UTF-8"?>
<svg width="512px" height="512px" viewBox="0 0 512 512" version="1.1" xmlns="http://www.w3.org/2000/svg" xmlns:xlink="http://www.w3.org/1999/xlink">
    <!-- Generator: Sketch 51.3 (57544) - http://www.bohemiancoding.com/sketch -->
    <title>/static/images/icons/support</title>
    <desc>Created with Sketch.</desc>
    <defs></defs>
    <g id="/static/images/icons/support" stroke="none" stroke-width="1" fill="none" fill-rule="evenodd">
        <g id="024-support" fill-rule="nonzero">
            <path d="M7.515,280.047 C7.515,311.036 32.636,336.157 63.625,336.157 L63.625,223.937 C32.636,223.937 7.515,249.058 7.515,280.047 Z" id="Shape" fill="#FFDB66"></path>
            <path d="M9.851,264.016 C8.338,269.097 7.514,274.474 7.514,280.047 C7.514,311.036 32.635,336.157 63.624,336.157 L63.624,304.094 C38.209,304.094 16.751,287.19 9.851,264.016 Z" id="Shape" fill="#F7C14D"></path>
            <path d="M79.656,360.204 L63.624,360.204 C45.916,360.204 31.561,345.849 31.561,328.141 L31.561,231.953 C31.561,214.245 45.916,199.89 63.624,199.89 L79.655,199.89 L79.655,360.204 L79.656,360.204 Z" id="Shape" fill="#7EC97D"></path>
            <path d="M71.64,344.172 C58.359,344.172 47.593,333.406 47.593,320.125 L47.593,215.922 C47.593,211.218 48.614,206.756 50.434,202.731 C39.308,207.762 31.562,218.949 31.562,231.953 L31.562,328.141 C31.562,345.849 45.917,360.204 63.625,360.204 L79.656,360.204 L79.656,344.173 L71.64,344.173 L71.64,344.172 Z" id="Shape" fill="#59AD57"></path>
            <path d="M504.485,280.047 C504.485,311.036 479.364,336.157 448.375,336.157 L448.375,223.937 C479.364,223.937 504.485,249.058 504.485,280.047 Z" id="Shape" fill="#FFDB66"></path>
            <path d="M448.376,304.094 L448.376,336.157 C479.365,336.157 504.486,311.036 504.486,280.047 C504.486,274.474 503.661,269.097 502.149,264.016 C495.249,287.19 473.791,304.094 448.376,304.094 Z" id="Shape" fill="#F7C14D"></path>
            <path d="M432.344,360.204 L448.375,360.204 C466.083,360.204 480.438,345.849 480.438,328.141 L480.438,231.953 C480.438,214.245 466.083,199.89 448.375,199.89 L432.344,199.89 L432.344,360.204 Z" id="Shape" fill="#7EC97D"></path>
            <path d="M461.566,202.731 C463.386,206.755 464.407,211.218 464.407,215.922 L464.407,320.126 C464.407,333.407 453.641,344.173 440.36,344.173 L432.344,344.173 L432.344,360.204 L448.375,360.204 C466.083,360.204 480.438,345.849 480.438,328.141 L480.438,231.953 C480.438,218.949 472.692,207.762 461.566,202.731 Z" id="Shape" fill="#59AD57"></path>
            <path d="M288.063,504.485 L183.859,504.485 L183.859,456.391 L288.063,456.391 C301.344,456.391 312.11,467.157 312.11,480.438 C312.11,493.719 301.344,504.485 288.063,504.485 Z" id="Shape" fill="#7C899B"></path>
            <path d="M288.063,488.454 L183.859,488.454 L183.859,504.485 L288.063,504.485 C301.344,504.485 312.11,493.719 312.11,480.438 C312.11,477.627 311.623,474.93 310.736,472.422 C307.434,481.761 298.532,488.454 288.063,488.454 Z" id="Shape" fill="#69788D"></path>
            <g id="Group" transform="translate(127.000000, 159.000000)" fill="#F09B24">
                <path d="M108.961,177.157 L53.889,177.157 C81.473,151.678 120.984,107.121 120.984,60.93 C120.984,27.781 94.015,0.813 60.867,0.813 C27.719,0.813 0.75,27.782 0.75,60.93 C0.75,67.57 6.134,72.953 12.773,72.953 C19.412,72.953 24.796,67.569 24.796,60.93 C24.796,41.04 40.977,24.86 60.866,24.86 C80.755,24.86 96.936,41.041 96.936,60.93 C96.936,118.137 14.543,178.853 13.715,179.456 C9.503,182.519 7.742,187.946 9.352,192.898 C10.962,197.85 15.578,201.203 20.786,201.203 L108.958,201.203 C115.598,201.203 120.981,195.819 120.981,189.18 C120.981,182.541 115.601,177.157 108.961,177.157 Z" id="Shape"></path>
                <path d="M261.258,145.094 L233.203,145.094 L233.203,12.836 C233.203,7.26 229.369,2.416 223.942,1.134 C218.517,-0.145 212.919,2.471 210.426,7.459 L138.285,151.741 C136.421,155.468 136.621,159.895 138.811,163.439 C141.002,166.984 144.872,169.141 149.039,169.141 L209.156,169.141 L209.156,189.18 C209.156,195.82 214.539,201.203 221.179,201.203 C227.819,201.203 233.202,195.819 233.202,189.18 L233.202,169.141 L261.257,169.141 C267.897,169.141 273.28,163.757 273.28,157.118 C273.28,150.479 267.898,145.094 261.258,145.094 Z M209.157,145.094 L168.495,145.094 L209.157,63.768 L209.157,145.094 Z" id="Shape"></path>
            </g>
            <path d="M512,280.047 C512,260.781 503.41,242.764 488.434,230.614 C488.264,230.476 488.087,230.35 487.909,230.23 C487.003,209.204 469.621,192.375 448.376,192.375 L439.859,192.375 L439.859,87.671 C439.859,39.329 400.53,0 352.188,0 L159.812,0 C111.47,0 72.141,39.329 72.141,87.671 L72.141,192.375 L63.624,192.375 C42.386,192.375 25.008,209.192 24.091,230.209 C24.019,230.263 23.944,230.309 23.873,230.366 C8.702,242.519 0,260.627 0,280.047 C0,298.932 8.312,316.722 22.807,328.853 C23.21,329.19 23.642,329.464 24.088,329.703 C24.913,350.804 42.327,367.718 63.625,367.718 L72.142,367.718 L72.142,448.376 C72.142,470.199 89.897,487.953 111.719,487.953 L176.345,487.953 L176.345,504.485 C176.345,508.635 179.71,512 183.86,512 L288.064,512 C305.467,512 319.626,497.841 319.626,480.438 C319.626,463.035 305.467,448.876 288.064,448.876 L183.859,448.876 C179.709,448.876 176.344,452.241 176.344,456.391 L176.344,472.923 L111.718,472.923 C98.183,472.923 87.17,461.91 87.17,448.375 L87.17,87.671 C87.17,47.616 119.757,15.029 159.812,15.029 L352.188,15.029 C392.243,15.029 424.83,47.616 424.83,87.671 L424.83,360.203 C424.83,364.353 428.195,367.718 432.345,367.718 L448.376,367.718 C469.615,367.718 486.994,350.899 487.909,329.881 C503.221,317.726 512,299.61 512,280.047 Z M191.374,463.906 L288.063,463.906 C297.179,463.906 304.595,471.323 304.595,480.438 C304.595,489.553 297.178,496.97 288.063,496.97 L191.374,496.97 L191.374,463.906 Z M15.029,280.047 C15.029,269.767 18.227,259.971 24.047,251.833 L24.047,308.227 C18.239,300.08 15.029,290.278 15.029,280.047 Z M39.076,328.141 L39.076,231.953 C39.076,218.418 50.089,207.405 63.624,207.405 L72.141,207.405 L72.141,352.689 L63.624,352.689 C50.089,352.689 39.076,341.676 39.076,328.141 Z M496.971,280.047 C496.971,290.359 493.776,300.145 487.953,308.275 L487.953,251.845 C493.768,259.986 496.971,269.782 496.971,280.047 Z M472.924,328.141 C472.924,341.676 461.911,352.689 448.376,352.689 L439.859,352.689 L439.859,207.405 L448.376,207.405 C461.911,207.405 472.924,218.417 472.924,231.953 L472.924,328.141 Z" id="Shape" fill="#000000"></path>
            <path d="M187.867,152.297 C150.574,152.297 120.235,182.636 120.235,219.929 C120.235,230.702 129,239.467 139.773,239.467 C150.546,239.467 159.311,230.702 159.311,219.929 C159.311,204.183 172.121,191.373 187.867,191.373 C203.613,191.373 216.423,204.183 216.423,219.929 C216.423,273.139 137.089,331.798 136.298,332.378 C129.433,337.371 126.584,346.149 129.209,354.222 C131.834,362.295 139.301,367.718 147.789,367.718 L235.961,367.718 C246.734,367.718 255.499,358.953 255.499,348.18 C255.499,337.407 246.734,328.642 235.961,328.642 L199.399,328.642 C227.446,299.898 255.5,260.903 255.5,219.93 C255.499,182.637 225.16,152.297 187.867,152.297 Z M173.891,338.894 C175.018,341.775 177.796,343.671 180.89,343.671 L235.962,343.671 C238.448,343.671 240.471,345.694 240.471,348.18 C240.471,350.666 238.448,352.689 235.962,352.689 L147.79,352.689 C143.521,352.689 141.687,347.043 145.143,344.53 C145.356,344.375 166.718,328.723 188.158,305.519 C216.887,274.426 231.454,245.63 231.454,219.93 C231.454,195.897 211.902,176.345 187.869,176.345 C163.836,176.345 144.284,195.897 144.284,219.93 C144.284,222.416 142.261,224.439 139.775,224.439 C137.289,224.439 135.266,222.416 135.266,219.93 C135.266,190.924 158.863,167.327 187.869,167.327 C216.875,167.327 240.472,190.924 240.472,219.93 C240.472,264.274 199.948,308.325 175.793,330.637 C173.518,332.735 172.763,336.012 173.891,338.894 Z" id="Shape" fill="#000000"></path>
            <path d="M388.258,296.579 L367.718,296.579 L367.718,243.809 C367.718,239.659 364.353,236.294 360.203,236.294 C356.053,236.294 352.688,239.659 352.688,243.809 L352.688,304.094 C352.688,308.244 356.053,311.609 360.203,311.609 L388.258,311.609 C390.744,311.609 392.767,313.632 392.767,316.118 C392.767,318.604 390.744,320.627 388.258,320.627 L360.203,320.627 C356.053,320.627 352.688,323.992 352.688,328.142 L352.688,348.181 C352.688,350.667 350.665,352.69 348.179,352.69 C345.693,352.69 343.67,350.667 343.67,348.181 L343.67,328.142 C343.67,323.992 340.305,320.627 336.155,320.627 L276.038,320.627 C272.749,320.627 270.528,317.056 272.005,314.101 L344.146,169.819 C346.222,165.667 352.687,167.195 352.687,171.836 L352.687,208.24 C352.687,212.39 356.052,215.755 360.202,215.755 C364.352,215.755 367.717,212.39 367.717,208.24 L367.717,171.836 C367.717,162.732 361.529,154.912 352.667,152.82 C343.806,150.731 334.774,154.956 330.704,163.098 L258.563,307.38 C255.359,313.787 255.956,321.535 260.077,327.389 C263.713,332.555 269.724,335.656 276.038,335.656 L328.642,335.656 L328.642,348.18 C328.642,358.953 337.407,367.718 348.18,367.718 C358.953,367.718 367.718,358.953 367.718,348.18 L367.718,335.656 L388.258,335.656 C399.031,335.656 407.796,326.891 407.796,316.118 C407.796,305.344 399.031,296.579 388.258,296.579 Z" id="Shape" fill="#000000"></path>
            <path d="M329.435,219.408 L288.773,300.734 C286.316,305.646 290.013,311.609 295.494,311.609 L336.156,311.609 C340.306,311.609 343.671,308.244 343.671,304.094 L343.671,222.768 C343.671,219.375 341.306,216.329 338.019,215.49 C334.633,214.623 330.999,216.279 329.435,219.408 Z M328.642,296.579 L307.653,296.579 L328.642,254.601 L328.642,296.579 Z" id="Shape" fill="#000000"></path>
        </g>
    </g>
</svg>