<?xml version="1.0" encoding="UTF-8"?>
<svg width="512px" height="512px" viewBox="0 0 512 512" version="1.1" xmlns="http://www.w3.org/2000/svg" xmlns:xlink="http://www.w3.org/1999/xlink">
    <!-- Generator: Sketch 51.3 (57544) - http://www.bohemiancoding.com/sketch -->
    <title>/static/images/icons/users</title>
    <desc>Created with Sketch.</desc>
    <defs></defs>
    <g id="/static/images/icons/users" stroke="none" stroke-width="1" fill="none" fill-rule="evenodd">
        <g id="019-folder-2" fill-rule="nonzero">
            <polygon id="Shape" fill="#FFDB66" points="135.765 71.64 135.765 7.515 7.515 7.515 7.515 384.25 504.485 384.25 504.485 71.64"></polygon>
            <g id="Group" transform="translate(7.000000, 7.000000)" fill="#F7C14D">
                <polygon id="Shape" points="32.577 345.188 32.577 0.515 0.515 0.515 0.515 377.25 497.485 377.25 497.485 345.188"></polygon>
                <rect id="Rectangle-path" x="305.11" y="24.562" width="128.25" height="40.078"></rect>
            </g>
            <g id="Group" transform="translate(183.000000, 103.000000)" fill="#F09B24">
                <circle id="Oval" cx="73" cy="48.796" r="48.094"></circle>
                <path d="M145.142,249.188 L0.859,249.188 L0.859,144.984 C0.859,127.276 15.214,112.921 32.922,112.921 L113.079,112.921 C130.787,112.921 145.142,127.276 145.142,144.984 L145.142,249.188 Z" id="Shape"></path>
            </g>
            <g id="Group" transform="translate(239.000000, 215.000000)" fill="#FFDB66">
                <polygon id="Shape" points="25.016 24.969 8.984 24.969 0.969 0.922 33.031 0.922"></polygon>
                <polygon id="Shape" points="33.031 97.11 17 113.141 0.969 97.11 8.984 24.969 25.016 24.969"></polygon>
            </g>
            <circle id="Oval" fill="#A1ABB8" cx="352.188" cy="392.266" r="112.219"></circle>
            <path d="M376.235,488.454 C314.258,488.454 264.016,438.212 264.016,376.235 C264.016,342.465 278.935,312.182 302.539,291.609 C265.468,309.93 239.969,348.117 239.969,392.267 C239.969,454.244 290.211,504.486 352.188,504.486 C380.395,504.486 406.168,494.077 425.884,476.893 C410.915,484.29 394.063,488.454 376.235,488.454 Z" id="Shape" fill="#8E9AA9"></path>
            <polygon id="Shape" fill="#DB6B5E" points="416.313 376.235 368.219 376.235 368.219 328.141 336.157 328.141 336.157 376.235 288.063 376.235 288.063 408.297 336.157 408.297 336.157 456.391 368.219 456.391 368.219 408.297 416.313 408.297"></polygon>
            <path d="M504.485,64.125 L447.874,64.125 L447.874,31.562 C447.874,27.412 444.509,24.047 440.359,24.047 L312.11,24.047 C307.96,24.047 304.595,27.412 304.595,31.562 L304.595,64.126 L143.28,64.126 L143.28,7.515 C143.28,3.365 139.915,0 135.765,0 L7.515,0 C3.365,0 0,3.365 0,7.515 L0,384.25 C0,388.4 3.365,391.765 7.515,391.765 L232.46,391.765 C232.459,391.932 232.454,392.099 232.454,392.266 C232.454,458.288 286.166,512 352.188,512 C418.21,512 471.922,458.288 471.922,392.266 C471.922,392.099 471.917,391.932 471.916,391.765 L504.486,391.765 C508.636,391.765 512.001,388.4 512.001,384.25 L512.001,71.64 C512,67.49 508.635,64.125 504.485,64.125 Z M319.624,39.076 L432.845,39.076 L432.845,64.125 L319.624,64.125 L319.624,39.076 Z M234.552,223.436 L240.333,240.779 L232.5,311.28 C232.249,313.548 233.041,315.81 234.655,317.423 L248.938,331.706 C246.483,335.874 244.275,340.204 242.331,344.673 L191.373,344.673 L191.373,247.984 C191.373,234.449 202.385,223.436 215.921,223.436 L234.552,223.436 Z M296.078,223.436 C309.613,223.436 320.626,234.448 320.626,247.984 L320.626,276.762 C304.922,281.058 290.494,288.473 278.058,298.305 L271.667,240.779 L277.448,223.436 L296.078,223.436 Z M257.525,319.039 L247.836,309.35 L254.71,247.483 L257.289,247.483 L264.346,310.995 C261.959,313.574 259.682,316.258 257.525,319.039 Z M258.599,232.454 L253.401,232.454 L250.395,223.436 L261.605,223.436 L258.599,232.454 Z M496.971,376.736 L470.907,376.736 C467.886,353.635 458.178,331.793 442.818,314.017 C440.105,310.878 435.36,310.53 432.218,313.245 C429.078,315.958 428.732,320.704 431.445,323.845 C447.854,342.835 456.892,367.135 456.892,392.267 C456.892,450.002 409.922,496.971 352.188,496.971 C294.454,496.971 247.484,450.001 247.484,392.267 C247.484,334.533 294.454,287.563 352.188,287.563 C371.104,287.563 389.636,292.659 405.782,302.3 C409.346,304.427 413.959,303.263 416.087,299.7 C418.215,296.137 417.051,291.523 413.487,289.396 C395.013,278.364 373.815,272.534 352.188,272.534 C346.579,272.534 341.061,272.931 335.656,273.681 L335.656,247.986 C335.656,226.163 317.901,208.409 296.079,208.409 L215.922,208.409 C194.099,208.409 176.345,226.164 176.345,247.986 L176.345,352.19 C176.345,356.34 179.71,359.705 183.86,359.705 L236.957,359.705 C235.393,365.232 234.219,370.92 233.461,376.738 L15.029,376.738 L15.029,15.029 L128.25,15.029 L128.25,71.64 C128.25,75.79 131.615,79.155 135.765,79.155 L496.97,79.155 L496.97,376.736 L496.971,376.736 Z" id="Shape" fill="#000000"></path>
            <path d="M256,96.188 C225.337,96.188 200.391,121.134 200.391,151.797 C200.391,182.46 225.337,207.406 256,207.406 C286.663,207.406 311.609,182.46 311.609,151.797 C311.609,121.134 286.663,96.188 256,96.188 Z M256,192.376 C233.624,192.376 215.421,174.172 215.421,151.797 C215.421,129.422 233.625,111.218 256,111.218 C278.375,111.218 296.579,129.422 296.579,151.797 C296.579,174.172 278.376,192.376 256,192.376 Z" id="Shape" fill="#000000"></path>
            <path d="M416.313,368.72 L375.734,368.72 L375.734,328.141 C375.734,323.991 372.369,320.626 368.219,320.626 L336.156,320.626 C332.006,320.626 328.641,323.991 328.641,328.141 L328.641,368.72 L288.062,368.72 C283.912,368.72 280.547,372.085 280.547,376.235 L280.547,408.298 C280.547,412.448 283.912,415.813 288.062,415.813 L328.641,415.813 L328.641,456.392 C328.641,460.542 332.006,463.907 336.156,463.907 L368.219,463.907 C372.369,463.907 375.734,460.542 375.734,456.392 L375.734,415.813 L416.313,415.813 C420.463,415.813 423.828,412.448 423.828,408.298 L423.828,376.235 C423.828,372.085 420.463,368.72 416.313,368.72 Z M408.798,400.783 L368.219,400.783 C364.069,400.783 360.704,404.148 360.704,408.298 L360.704,448.877 L343.671,448.877 L343.671,408.298 C343.671,404.148 340.306,400.783 336.156,400.783 L295.577,400.783 L295.577,383.75 L336.156,383.75 C340.306,383.75 343.671,380.385 343.671,376.235 L343.671,335.656 L360.704,335.656 L360.704,376.235 C360.704,380.385 364.069,383.75 368.219,383.75 L408.798,383.75 L408.798,400.783 Z" id="Shape" fill="#000000"></path>
        </g>
    </g>
</svg>