<?xml version="1.0" encoding="UTF-8"?>
<svg width="1497px" height="556px" viewBox="0 0 1497 556" version="1.1" xmlns="http://www.w3.org/2000/svg" xmlns:xlink="http://www.w3.org/1999/xlink">
    <!-- Generator: Sketch 51.3 (57544) - http://www.bohemiancoding.com/sketch -->
    <title>/static/images/logo</title>
    <desc>Created with Sketch.</desc>
    <defs></defs>
    <g id="/static/images/logo" stroke="none" stroke-width="1" fill="none" fill-rule="evenodd">
        <g id="blueprint" transform="translate(0.000000, 23.000000)" fill="#FFFFFF" fill-rule="nonzero">
            <path d="M1409.74,1.304 L1400.612,0 L1400.612,90.248 L1366.996,94.856 L1351.388,1.224 L1321.748,1.224 L1306.06,103.208 L1288.612,105.6 L1288.612,112.576 C1288.612,112.72 880.612,112.936 64.612,113.224 L64.612,65.224 L32.612,65.224 C14.964,65.224 0.612,79.576 0.612,97.224 L0.612,449.224 C0.612,466.872 14.964,481.224 32.612,481.224 L1353.492,481.224 C1363.596,491.104 1377.396,497.224 1392.612,497.224 C1423.492,497.224 1448.612,472.104 1448.612,441.224 L1448.612,213.52 C1448.612,192.8 1456.356,173.344 1469.852,160.144 C1487.108,143.28 1496.612,120.64 1496.612,96.408 C1496.612,56.568 1469.428,9.816 1409.74,1.304 Z M1335.476,17.224 L1337.836,17.224 L1351.14,97.032 L1322.596,100.944 L1335.476,17.224 Z M32.612,465.224 C23.788,465.224 16.612,458.048 16.612,449.224 C16.612,440.4 23.788,433.224 32.612,433.224 L64.612,433.224 L64.612,401.224 L48.612,401.224 L48.612,417.224 L32.612,417.224 C26.756,417.224 21.34,418.92 16.612,421.672 L16.612,97.224 C16.612,88.4 23.788,81.224 32.612,81.224 L48.612,81.224 L48.612,385.224 L64.612,385.224 L64.612,129.224 L1291.796,129.224 C1296.588,142.592 1306.636,155.848 1320.5,166.176 C1330.596,173.688 1336.612,185.656 1336.612,198.192 L1336.612,441.224 C1336.612,449.824 1338.612,457.936 1342.092,465.224 L32.612,465.224 Z M1458.668,148.712 C1442.108,164.896 1432.612,188.52 1432.612,213.52 L1432.612,441.224 C1432.612,463.28 1414.668,481.224 1392.612,481.224 C1370.556,481.224 1352.612,463.28 1352.612,441.224 L1352.612,198.192 C1352.612,180.624 1344.18,163.856 1330.06,153.344 C1317.196,143.76 1308.116,131.072 1305.428,119.448 L1416.612,104.2 L1416.612,18.856 C1460.508,29.168 1480.612,65.336 1480.612,96.408 C1480.612,116.304 1472.82,134.872 1458.668,148.712 Z" id="Shape"></path>
            <path d="M1392.612,233.224 C1379.38,233.224 1368.612,243.992 1368.612,257.224 L1368.612,337.224 L1384.612,337.224 L1384.612,257.224 C1384.612,252.816 1388.204,249.224 1392.612,249.224 C1397.02,249.224 1400.612,252.816 1400.612,257.224 L1400.612,377.224 C1400.612,381.632 1397.02,385.224 1392.612,385.224 C1388.204,385.224 1384.612,381.632 1384.612,377.224 L1384.612,353.224 L1368.612,353.224 L1368.612,377.224 C1368.612,390.456 1379.38,401.224 1392.612,401.224 C1405.844,401.224 1416.612,390.456 1416.612,377.224 L1416.612,257.224 C1416.612,243.992 1405.844,233.224 1392.612,233.224 Z" id="Shape"></path>
            <path d="M1392.612,417.224 C1379.38,417.224 1368.612,427.992 1368.612,441.224 C1368.612,454.456 1379.38,465.224 1392.612,465.224 C1405.844,465.224 1416.612,454.456 1416.612,441.224 C1416.612,427.992 1405.844,417.224 1392.612,417.224 Z M1392.612,449.224 C1388.204,449.224 1384.612,445.632 1384.612,441.224 C1384.612,436.816 1388.204,433.224 1392.612,433.224 C1397.02,433.224 1400.612,436.816 1400.612,441.224 C1400.612,445.632 1397.02,449.224 1392.612,449.224 Z" id="Shape"></path>
            <path d="M1360.612,185.224 L1424.612,185.224 L1424.612,137.224 L1360.612,137.224 L1360.612,185.224 Z M1376.612,153.224 L1408.612,153.224 L1408.612,169.224 L1376.612,169.224 L1376.612,153.224 Z" id="Shape"></path>
        </g>
        <path d="M332.486535,229.414229 L353.366392,194.884585 C353.654392,194.405004 354.278381,193.637686 355.238379,192.582609 C356.198377,191.527531 357.638353,191 359.55835,191 L382.310194,191 C383.366192,191 384.278177,191.383659 385.046176,192.150988 C385.814174,192.918317 386.198168,193.829507 386.198168,194.884585 L386.198168,287.826877 C386.198168,288.881955 385.814174,289.793145 385.046176,290.560474 C384.278177,291.327804 383.366192,291.711462 382.310194,291.711462 L356.246372,291.711462 C355.190374,291.711462 354.27839,291.327804 353.510391,290.560474 C352.742392,289.793145 352.358399,288.881955 352.358399,287.826877 L352.358399,248.405534 L342.854464,263.943874 C342.374465,264.711203 341.726476,265.502499 340.910477,266.317787 C340.094479,267.133074 338.966498,267.540711 337.5265,267.540711 L327.446569,267.540711 C326.006572,267.540711 324.878591,267.133074 324.062592,266.317787 C323.246594,265.502499 322.598605,264.711203 322.118606,263.943874 L312.61467,248.405534 L312.61467,287.826877 C312.61467,288.881955 312.230677,289.793145 311.462678,290.560474 C310.69468,291.327804 309.782695,291.711462 308.726697,291.711462 L282.662875,291.711462 C281.606877,291.711462 280.694892,291.327804 279.926894,290.560474 C279.158895,289.793145 278.774902,288.881955 278.774902,287.826877 L278.774902,194.884585 C278.774902,193.829507 279.158895,192.918317 279.926894,192.150988 C280.694892,191.383659 281.606877,191 282.662875,191 L305.41472,191 C307.334716,191 308.774692,191.527531 309.73469,192.582609 C310.694688,193.637686 311.318678,194.405004 311.606677,194.884585 L332.486535,229.414229 Z M484.549496,263.656126 C485.605494,263.656126 486.517479,264.039785 487.285477,264.807115 C488.053476,265.574444 488.437469,266.485634 488.437469,267.540711 L488.437469,287.826877 C488.437469,288.881955 488.053476,289.793145 487.285477,290.560474 C486.517479,291.327804 485.605494,291.711462 484.549496,291.711462 L409.526008,291.711462 C408.47001,291.711462 407.558026,291.327804 406.790027,290.560474 C406.022028,289.793145 405.638035,288.881955 405.638035,287.826877 L405.638035,194.884585 C405.638035,193.829507 406.022028,192.918317 406.790027,192.150988 C407.558026,191.383659 408.47001,191 409.526008,191 L483.397504,191 C484.453502,191 485.365486,191.383659 486.133485,192.150988 C486.901484,192.918317 487.285477,193.829507 487.285477,194.884585 L487.285477,215.170751 C487.285477,216.225829 486.901484,217.137019 486.133485,217.904348 C485.365486,218.671677 484.453502,219.055336 483.397504,219.055336 L440.197799,219.055336 L440.197799,228.119368 L480.229525,228.119368 C481.285523,228.119368 482.197508,228.503026 482.965507,229.270356 C483.733505,230.037685 484.117499,230.948875 484.117499,232.003953 L484.117499,250.70751 C484.117499,251.762588 483.733505,252.673777 482.965507,253.441107 C482.197508,254.208436 481.285523,254.592095 480.229525,254.592095 L440.197799,254.592095 L440.197799,263.656126 L484.549496,263.656126 Z M584.196815,263.656126 C585.252813,263.656126 586.164798,264.039785 586.932796,264.807115 C587.700795,265.574444 588.084788,266.485634 588.084788,267.540711 L588.084788,287.826877 C588.084788,288.881955 587.700795,289.793145 586.932796,290.560474 C586.164798,291.327804 585.252813,291.711462 584.196815,291.711462 L509.173328,291.711462 C508.11733,291.711462 507.205345,291.327804 506.437346,290.560474 C505.669348,289.793145 505.285354,288.881955 505.285354,287.826877 L505.285354,194.884585 C505.285354,193.829507 505.669348,192.918317 506.437346,192.150988 C507.205345,191.383659 508.11733,191 509.173328,191 L583.044823,191 C584.100821,191 585.012806,191.383659 585.780804,192.150988 C586.548803,192.918317 586.932796,193.829507 586.932796,194.884585 L586.932796,215.170751 C586.932796,216.225829 586.548803,217.137019 585.780804,217.904348 C585.012806,218.671677 584.100821,219.055336 583.044823,219.055336 L539.845118,219.055336 L539.845118,228.119368 L579.876845,228.119368 C580.932843,228.119368 581.844827,228.503026 582.612826,229.270356 C583.380824,230.037685 583.764818,230.948875 583.764818,232.003953 L583.764818,250.70751 C583.764818,251.762588 583.380824,252.673777 582.612826,253.441107 C581.844827,254.208436 580.932843,254.592095 579.876845,254.592095 L539.845118,254.592095 L539.845118,263.656126 L584.196815,263.656126 Z M687.732108,191 C688.788106,191 689.70009,191.383659 690.468089,192.150988 C691.236088,192.918317 691.620081,193.829507 691.620081,194.884585 L691.620081,218.048221 C691.620081,219.103299 691.236088,220.014489 690.468089,220.781818 C689.70009,221.549147 688.788106,221.932806 687.732108,221.932806 L663.828271,221.932806 L663.828271,287.826877 C663.828271,288.881955 663.444277,289.793145 662.676279,290.560474 C661.90828,291.327804 660.996296,291.711462 659.940298,291.711462 L631.140494,291.711462 C630.084496,291.711462 629.172512,291.327804 628.404513,290.560474 C627.636514,289.793145 627.252521,288.881955 627.252521,287.826877 L627.252521,221.932806 L603.348684,221.932806 C602.292686,221.932806 601.380701,221.549147 600.612703,220.781818 C599.844704,220.014489 599.460711,219.103299 599.460711,218.048221 L599.460711,194.884585 C599.460711,193.829507 599.844704,192.918317 600.612703,192.150988 C601.380701,191.383659 602.292686,191 603.348684,191 L687.732108,191 Z M747.059702,234.449802 C748.1157,234.449802 749.027685,234.833461 749.795684,235.600791 C750.563682,236.36812 750.947676,237.27931 750.947676,238.334387 L750.947676,258.764427 C750.947676,259.819505 750.563682,260.730694 749.795684,261.498024 C749.027685,262.265353 748.1157,262.649012 747.059702,262.649012 L700.260022,262.649012 C699.204024,262.649012 698.292039,262.265353 697.524041,261.498024 C696.756042,260.730694 696.372049,259.819505 696.372049,258.764427 L696.372049,238.334387 C696.372049,237.27931 696.756042,236.36812 697.524041,235.600791 C698.292039,234.833461 699.204024,234.449802 700.260022,234.449802 L747.059702,234.449802 Z M843.97104,191 C845.027038,191 845.939023,191.383659 846.707022,192.150988 C847.47502,192.918317 847.859014,193.829507 847.859014,194.884585 L847.859014,218.048221 C847.859014,219.103299 847.47502,220.014489 846.707022,220.781818 C845.939023,221.549147 845.027038,221.932806 843.97104,221.932806 L820.067204,221.932806 L820.067204,287.826877 C820.067204,288.881955 819.68321,289.793145 818.915212,290.560474 C818.147213,291.327804 817.235228,291.711462 816.17923,291.711462 L787.379427,291.711462 C786.323429,291.711462 785.411444,291.327804 784.643446,290.560474 C783.875447,289.793145 783.491454,288.881955 783.491454,287.826877 L783.491454,221.932806 L759.587617,221.932806 C758.531619,221.932806 757.619634,221.549147 756.851636,220.781818 C756.083637,220.014489 755.699643,219.103299 755.699643,218.048221 L755.699643,194.884585 C755.699643,193.829507 756.083637,192.918317 756.851636,192.150988 C757.619634,191.383659 758.531619,191 759.587617,191 L843.97104,191 Z M953.266294,191 C954.322292,191 955.234276,191.383659 956.002275,192.150988 C956.770274,192.918317 957.154267,193.829507 957.154267,194.884585 L957.154267,287.826877 C957.154267,288.881955 956.770274,289.793145 956.002275,290.560474 C955.234276,291.327804 954.322292,291.711462 953.266294,291.711462 L925.042486,291.711462 C923.986488,291.711462 923.074504,291.327804 922.306505,290.560474 C921.538507,289.793145 921.154513,288.881955 921.154513,287.826877 L921.154513,256.750198 L897.826672,256.750198 L897.826672,287.826877 C897.826672,288.881955 897.442679,289.793145 896.67468,290.560474 C895.906682,291.327804 894.994697,291.711462 893.938699,291.711462 L865.714892,291.711462 C864.658894,291.711462 863.746909,291.351782 862.97891,290.632411 C862.210912,289.91304 861.826918,288.977871 861.826918,287.826877 L861.826918,194.884585 C861.826918,193.829507 862.210912,192.918317 862.97891,192.150988 C863.746909,191.383659 864.658894,191 865.714892,191 L893.938699,191 C894.994697,191 895.906682,191.383659 896.67468,192.150988 C897.442679,192.918317 897.826672,193.829507 897.826672,194.884585 L897.826672,225.098024 L921.154513,225.098024 L921.154513,194.884585 C921.154513,193.829507 921.538507,192.918317 922.306505,192.150988 C923.074504,191.383659 923.986488,191 925.042486,191 L953.266294,191 Z M1055.5056,263.656126 C1056.56159,263.656126 1057.47358,264.039785 1058.24158,264.807115 C1059.00958,265.574444 1059.39357,266.485634 1059.39357,267.540711 L1059.39357,287.826877 C1059.39357,288.881955 1059.00958,289.793145 1058.24158,290.560474 C1057.47358,291.327804 1056.56159,291.711462 1055.5056,291.711462 L980.482108,291.711462 C979.42611,291.711462 978.514125,291.327804 977.746126,290.560474 C976.978128,289.793145 976.594134,288.881955 976.594134,287.826877 L976.594134,194.884585 C976.594134,193.829507 976.978128,192.918317 977.746126,192.150988 C978.514125,191.383659 979.42611,191 980.482108,191 L1054.3536,191 C1055.4096,191 1056.32159,191.383659 1057.08958,192.150988 C1057.85758,192.918317 1058.24158,193.829507 1058.24158,194.884585 L1058.24158,215.170751 C1058.24158,216.225829 1057.85758,217.137019 1057.08958,217.904348 C1056.32159,218.671677 1055.4096,219.055336 1054.3536,219.055336 L1011.1539,219.055336 L1011.1539,228.119368 L1051.18562,228.119368 C1052.24162,228.119368 1053.15361,228.503026 1053.92161,229.270356 C1054.6896,230.037685 1055.0736,230.948875 1055.0736,232.003953 L1055.0736,250.70751 C1055.0736,251.762588 1054.6896,252.673777 1053.92161,253.441107 C1053.15361,254.208436 1052.24162,254.592095 1051.18562,254.592095 L1011.1539,254.592095 L1011.1539,263.656126 L1055.5056,263.656126 Z M1125.63312,234.449802 C1126.68911,234.449802 1127.6011,234.833461 1128.3691,235.600791 C1129.1371,236.36812 1129.52109,237.27931 1129.52109,238.334387 L1129.52109,258.764427 C1129.52109,259.819505 1129.1371,260.730694 1128.3691,261.498024 C1127.6011,262.265353 1126.68911,262.649012 1125.63312,262.649012 L1078.83344,262.649012 C1077.77744,262.649012 1076.86545,262.265353 1076.09745,261.498024 C1075.32946,260.730694 1074.94546,259.819505 1074.94546,258.764427 L1074.94546,238.334387 C1074.94546,237.27931 1075.32946,236.36812 1076.09745,235.600791 C1076.86545,234.833461 1077.77744,234.449802 1078.83344,234.449802 L1125.63312,234.449802 Z M196.911461,434.505929 C197.967459,434.505929 198.879444,434.889588 199.647442,435.656917 C200.415441,436.424246 200.799434,437.335436 200.799434,438.390514 L200.799434,458.67668 C200.799434,459.731758 200.415441,460.642947 199.647442,461.410277 C198.879444,462.177606 197.967459,462.561265 196.911461,462.561265 L121.887973,462.561265 C120.831975,462.561265 119.919991,462.177606 119.151992,461.410277 C118.383994,460.642947 118,459.731758 118,458.67668 L118,365.734387 C118,364.67931 118.383994,363.76812 119.151992,363.000791 C119.919991,362.233461 120.831975,361.849802 121.887973,361.849802 L195.759469,361.849802 C196.815467,361.849802 197.727451,362.233461 198.49545,363.000791 C199.263449,363.76812 199.647442,364.67931 199.647442,365.734387 L199.647442,386.020553 C199.647442,387.075631 199.263449,387.986821 198.49545,388.75415 C197.727451,389.521479 196.815467,389.905138 195.759469,389.905138 L152.559764,389.905138 L152.559764,398.96917 L192.59149,398.96917 C193.647488,398.96917 194.559473,399.352829 195.327472,400.120158 C196.09547,400.887487 196.479464,401.798677 196.479464,402.853755 L196.479464,421.557312 C196.479464,422.61239 196.09547,423.52358 195.327472,424.290909 C194.559473,425.058238 193.647488,425.441897 192.59149,425.441897 L152.559764,425.441897 L152.559764,434.505929 L196.911461,434.505929 Z M304.478726,361.849802 C305.534724,361.849802 306.446709,362.233461 307.214707,363.000791 C307.982706,363.76812 308.366699,364.67931 308.366699,365.734387 L308.366699,458.67668 C308.366699,459.731758 307.982706,460.642947 307.214707,461.410277 C306.446709,462.177606 305.534724,462.561265 304.478726,462.561265 L281.726881,462.561265 C279.806885,462.561265 278.414908,462.129649 277.55091,461.266403 C276.686912,460.403158 276.110921,459.731755 275.822922,459.252174 L251.487088,422.564427 L251.487088,458.67668 C251.487088,459.731758 251.103095,460.642947 250.335096,461.410277 C249.567097,462.177606 248.655113,462.561265 247.599115,462.561265 L221.535293,462.561265 C220.479295,462.561265 219.56731,462.177606 218.799311,461.410277 C218.031313,460.642947 217.647319,459.731758 217.647319,458.67668 L217.647319,365.734387 C217.647319,364.67931 218.031313,363.76812 218.799311,363.000791 C219.56731,362.233461 220.479295,361.849802 221.535293,361.849802 L244.287137,361.849802 C246.207134,361.849802 247.59911,362.281419 248.463109,363.144664 C249.327107,364.007909 249.903097,364.679312 250.191097,365.158893 L274.526931,405.011858 L274.526931,365.734387 C274.526931,364.67931 274.910924,363.76812 275.678923,363.000791 C276.446921,362.233461 277.358906,361.849802 278.414904,361.849802 L304.478726,361.849802 Z M373.742253,388.466403 C366.638266,388.466403 362.942328,392.063205 362.654329,399.256917 C362.366329,407.217958 362.366329,415.370709 362.654329,423.715415 C362.846328,428.031642 363.95031,431.148871 365.966306,433.067194 C367.982302,434.985517 370.766255,435.944664 374.318249,435.944664 C377.966242,435.944664 380.918193,435.153368 383.174188,433.570751 C385.430184,431.988134 386.558165,429.326501 386.558165,425.585771 L379.790212,425.585771 C378.734213,425.585771 377.822229,425.202112 377.05423,424.434783 C376.286232,423.667453 375.902238,422.756264 375.902238,421.701186 L375.902238,405.731225 C375.902238,404.676148 376.286232,403.764958 377.05423,402.997628 C377.822229,402.230299 378.734213,401.84664 379.790212,401.84664 L419.389941,401.84664 C420.445939,401.84664 421.357924,402.230299 422.125922,402.997628 C422.893921,403.764958 423.277914,404.676148 423.277914,405.731225 L423.277914,424.434783 C423.277914,430.957081 422.053935,436.664007 419.605939,441.555731 C417.157944,446.447455 413.750001,450.571788 409.382009,453.928854 C405.014017,457.285919 399.806105,459.803681 393.758116,461.482213 C387.710127,463.160746 381.038239,464 373.742253,464 C366.446266,464 359.870377,463.184725 354.014388,461.55415 C348.158398,459.923576 343.142483,457.47775 338.96649,454.216601 C334.790498,450.955451 331.526553,446.855097 329.174557,441.915415 C326.822562,436.975733 325.502584,431.148914 325.214584,424.434783 C325.022585,420.50222 324.926586,416.234015 324.926586,411.63004 C324.926586,407.026064 325.022585,402.661944 325.214584,398.537549 C325.502584,392.207083 326.846561,386.644029 329.246557,381.848221 C331.646552,377.052413 334.958497,373.071953 339.182489,369.906719 C343.406481,366.741486 348.446396,364.367597 354.302386,362.78498 C360.158375,361.202364 366.638266,360.411067 373.742253,360.411067 C381.326239,360.411067 388.166124,361.2743 394.262113,363.000791 C400.358101,364.727281 405.518015,367.053213 409.742007,369.978656 C413.965999,372.904099 417.253944,376.309071 419.605939,380.193676 C421.957935,384.07828 423.181915,388.178635 423.277914,392.494862 C423.277914,393.358107 422.96592,394.101446 422.341921,394.724901 C421.717922,395.348356 420.973934,395.660079 420.109936,395.660079 L388.286153,395.660079 C386.366157,395.660079 384.97418,395.132548 384.110182,394.07747 C383.822183,393.693806 383.462189,393.190253 383.030189,392.566798 C382.59819,391.943343 381.974201,391.319898 381.158202,390.696443 C380.342204,390.072988 379.334221,389.545457 378.134223,389.113834 C376.934225,388.682211 375.47025,388.466403 373.742253,388.466403 Z M443.725775,462.561265 C442.669777,462.561265 441.757792,462.177606 440.989793,461.410277 C440.221795,460.642947 439.837801,459.731758 439.837801,458.67668 L439.837801,365.734387 C439.837801,364.67931 440.221795,363.76812 440.989793,363.000791 C441.757792,362.233461 442.669777,361.849802 443.725775,361.849802 L473.101574,361.849802 C474.157572,361.849802 475.069557,362.233461 475.837555,363.000791 C476.605554,363.76812 476.989547,364.67931 476.989547,365.734387 L476.989547,458.67668 C476.989547,459.731758 476.605554,460.642947 475.837555,461.410277 C475.069557,462.177606 474.157572,462.561265 473.101574,462.561265 L443.725775,462.561265 Z M583.260821,361.849802 C584.31682,361.849802 585.228804,362.233461 585.996803,363.000791 C586.764801,363.76812 587.148795,364.67931 587.148795,365.734387 L587.148795,458.67668 C587.148795,459.731758 586.764801,460.642947 585.996803,461.410277 C585.228804,462.177606 584.31682,462.561265 583.260821,462.561265 L560.508977,462.561265 C558.58898,462.561265 557.197004,462.129649 556.333005,461.266403 C555.469007,460.403158 554.893017,459.731755 554.605017,459.252174 L530.269183,422.564427 L530.269183,458.67668 C530.269183,459.731758 529.88519,460.642947 529.117191,461.410277 C528.349193,462.177606 527.437208,462.561265 526.38121,462.561265 L500.317388,462.561265 C499.26139,462.561265 498.349405,462.177606 497.581407,461.410277 C496.813408,460.642947 496.429415,459.731758 496.429415,458.67668 L496.429415,365.734387 C496.429415,364.67931 496.813408,363.76812 497.581407,363.000791 C498.349405,362.233461 499.26139,361.849802 500.317388,361.849802 L523.069233,361.849802 C524.989229,361.849802 526.381206,362.281419 527.245204,363.144664 C528.109203,364.007909 528.685193,364.679312 528.973192,365.158893 L553.309026,405.011858 L553.309026,365.734387 C553.309026,364.67931 553.69302,363.76812 554.461018,363.000791 C555.229017,362.233461 556.141001,361.849802 557.197,361.849802 L583.260821,361.849802 Z M685.500123,434.505929 C686.556121,434.505929 687.468106,434.889588 688.236104,435.656917 C689.004103,436.424246 689.388096,437.335436 689.388096,438.390514 L689.388096,458.67668 C689.388096,459.731758 689.004103,460.642947 688.236104,461.410277 C687.468106,462.177606 686.556121,462.561265 685.500123,462.561265 L610.476636,462.561265 C609.420637,462.561265 608.508653,462.177606 607.740654,461.410277 C606.972656,460.642947 606.588662,459.731758 606.588662,458.67668 L606.588662,365.734387 C606.588662,364.67931 606.972656,363.76812 607.740654,363.000791 C608.508653,362.233461 609.420637,361.849802 610.476636,361.849802 L684.348131,361.849802 C685.404129,361.849802 686.316114,362.233461 687.084112,363.000791 C687.852111,363.76812 688.236104,364.67931 688.236104,365.734387 L688.236104,386.020553 C688.236104,387.075631 687.852111,387.986821 687.084112,388.75415 C686.316114,389.521479 685.404129,389.905138 684.348131,389.905138 L641.148426,389.905138 L641.148426,398.96917 L681.180152,398.96917 C682.236151,398.96917 683.148135,399.352829 683.916134,400.120158 C684.684132,400.887487 685.068126,401.798677 685.068126,402.853755 L685.068126,421.557312 C685.068126,422.61239 684.684132,423.52358 683.916134,424.290909 C683.148135,425.058238 682.236151,425.441897 681.180152,425.441897 L641.148426,425.441897 L641.148426,434.505929 L685.500123,434.505929 Z M785.147442,434.505929 C786.20344,434.505929 787.115425,434.889588 787.883424,435.656917 C788.651422,436.424246 789.035416,437.335436 789.035416,438.390514 L789.035416,458.67668 C789.035416,459.731758 788.651422,460.642947 787.883424,461.410277 C787.115425,462.177606 786.20344,462.561265 785.147442,462.561265 L710.123955,462.561265 C709.067957,462.561265 708.155972,462.177606 707.387973,461.410277 C706.619975,460.642947 706.235981,459.731758 706.235981,458.67668 L706.235981,365.734387 C706.235981,364.67931 706.619975,363.76812 707.387973,363.000791 C708.155972,362.233461 709.067957,361.849802 710.123955,361.849802 L783.99545,361.849802 C785.051448,361.849802 785.963433,362.233461 786.731431,363.000791 C787.49943,363.76812 787.883424,364.67931 787.883424,365.734387 L787.883424,386.020553 C787.883424,387.075631 787.49943,387.986821 786.731431,388.75415 C785.963433,389.521479 785.051448,389.905138 783.99545,389.905138 L740.795745,389.905138 L740.795745,398.96917 L780.827472,398.96917 C781.88347,398.96917 782.795454,399.352829 783.563453,400.120158 C784.331452,400.887487 784.715445,401.798677 784.715445,402.853755 L784.715445,421.557312 C784.715445,422.61239 784.331452,423.52358 783.563453,424.290909 C782.795454,425.058238 781.88347,425.441897 780.827472,425.441897 L740.795745,425.441897 L740.795745,434.505929 L785.147442,434.505929 Z M898.618667,457.813439 C898.906666,458.388936 899.050664,458.916467 899.050664,459.396047 C899.050664,460.259293 898.738669,461.002632 898.11467,461.626087 C897.490672,462.249542 896.746684,462.561265 895.882686,462.561265 L866.362887,462.561265 C864.442891,462.561265 863.002915,462.081691 862.042917,461.12253 C861.082919,460.163368 860.458929,459.348093 860.17093,458.67668 L847.787014,431.196838 L841.883055,431.196838 L841.883055,458.67668 C841.883055,459.731758 841.499061,460.642947 840.731062,461.410277 C839.963064,462.177606 839.051079,462.561265 837.995081,462.561265 L809.771274,462.561265 C808.715276,462.561265 807.803291,462.177606 807.035293,461.410277 C806.267294,460.642947 805.883301,459.731758 805.883301,458.67668 L805.883301,365.734387 C805.883301,364.67931 806.267294,363.76812 807.035293,363.000791 C807.803291,362.233461 808.715276,361.849802 809.771274,361.849802 L852.394983,361.849802 C859.30697,361.849802 865.498866,362.641099 870.970856,364.223715 C876.442846,365.806332 881.050768,368.108285 884.794761,371.129644 C888.538755,374.151003 891.418706,377.819741 893.434702,382.135968 C895.450699,386.452195 896.458682,391.343846 896.458682,396.811067 C896.458682,403.333366 895.018706,408.944377 892.138711,413.644269 C889.258717,418.344161 885.51478,422.132792 880.906788,425.010277 L898.618667,457.813439 Z M841.883055,403.86087 L852.394983,403.86087 C854.602979,403.86087 856.258951,403.11753 857.362949,401.63083 C858.466947,400.14413 859.018938,398.441643 859.018938,396.52332 C859.018938,394.604997 858.514946,392.806596 857.506948,391.128063 C856.49895,389.44953 854.794978,388.610277 852.394983,388.610277 L841.883055,388.610277 L841.883055,403.86087 Z M940.522381,429.758103 C941.578379,429.758103 942.490363,430.141762 943.258362,430.909091 C944.026361,431.67642 944.410354,432.58761 944.410354,433.642688 L944.410354,458.67668 C944.410354,459.731758 944.026361,460.642947 943.258362,461.410277 C942.490363,462.177606 941.578379,462.561265 940.522381,462.561265 L915.466552,462.561265 C914.410554,462.561265 913.498569,462.177606 912.730571,461.410277 C911.962572,460.642947 911.578578,459.731758 911.578578,458.67668 L911.578578,433.642688 C911.578578,432.58761 911.962572,431.67642 912.730571,430.909091 C913.498569,430.141762 914.410554,429.758103 915.466552,429.758103 L940.522381,429.758103 Z M996.825996,400.120158 C996.537997,408.081199 996.537997,416.138036 996.825996,424.290909 C997.017996,428.703052 998.049978,431.748345 999.921975,433.426877 C1001.79397,435.10541 1004.31393,435.944664 1007.48192,435.944664 C1009.97792,435.944664 1012.16188,435.369176 1014.03388,434.218182 C1015.90588,433.067188 1017.32185,431.052979 1018.28185,428.175494 C1018.76185,426.544919 1019.36184,425.4419 1020.08184,424.866403 C1020.80184,424.290906 1021.97782,424.003162 1023.60981,424.003162 L1052.98561,424.003162 C1053.84961,424.003162 1054.5936,424.314885 1055.2176,424.93834 C1055.8416,425.561795 1056.15359,426.305134 1056.15359,427.168379 C1056.05759,433.690678 1054.61762,439.277711 1051.83362,443.929644 C1049.04963,448.581578 1045.40169,452.394188 1040.8897,455.367589 C1036.3777,458.34099 1031.24179,460.52305 1025.4818,461.913834 C1019.72181,463.304618 1013.76991,464 1007.62592,464 C1000.71393,464 994.378042,463.256661 988.618052,461.76996 C982.858063,460.28326 977.842147,457.957328 973.570155,454.792095 C969.298163,451.626862 965.938219,447.598443 963.490224,442.706719 C961.042228,437.814995 959.674251,431.91624 959.386252,425.010277 C959.194252,421.077714 959.098254,416.857467 959.098254,412.349407 C959.098254,407.841348 959.194252,403.525185 959.386252,399.400791 C959.674251,392.686659 961.090227,386.883819 963.634223,381.992095 C966.178218,377.100371 969.586161,373.047974 973.858153,369.834783 C978.130145,366.621591 983.146061,364.247702 988.90605,362.713043 C994.66604,361.178385 1000.90593,360.411067 1007.62592,360.411067 C1013.76991,360.411067 1019.72181,361.106449 1025.4818,362.497233 C1031.24179,363.888017 1036.3777,366.070077 1040.8897,369.043478 C1045.40169,372.016879 1049.04963,375.829489 1051.83362,380.481423 C1054.61762,385.133357 1056.05759,390.720389 1056.15359,397.242688 C1056.15359,398.105933 1055.8416,398.849272 1055.2176,399.472727 C1054.5936,400.096182 1053.84961,400.407905 1052.98561,400.407905 L1023.60981,400.407905 C1021.97782,400.407905 1020.82584,400.120161 1020.15384,399.544664 C1019.48184,398.969167 1018.85785,397.866148 1018.28185,396.235573 C1017.22585,393.166256 1015.78588,391.10409 1013.96188,390.049012 C1012.13788,388.993934 1009.97792,388.466403 1007.48192,388.466403 C1004.31393,388.466403 1001.79397,389.305657 999.921975,390.98419 C998.049978,392.662722 997.017996,395.708015 996.825996,400.120158 Z M1164.72885,399.832411 C1164.92085,403.956806 1165.01685,408.225011 1165.01685,412.637154 C1165.01685,417.049297 1164.92085,421.221588 1164.72885,425.15415 C1164.44085,431.580533 1163.09687,437.215523 1160.69688,442.059289 C1158.29688,446.903055 1155.00894,450.955451 1150.83294,454.216601 C1146.65695,457.47775 1141.66504,459.923576 1135.85705,461.55415 C1130.04906,463.184725 1123.64116,464 1116.63318,464 C1109.52919,464 1103.0973,463.184725 1097.33731,461.55415 C1091.57732,459.923576 1086.6094,457.47775 1082.43341,454.216601 C1078.25742,450.955451 1074.96947,446.903055 1072.56948,442.059289 C1070.16948,437.215523 1068.82551,431.580533 1068.53751,425.15415 C1068.34551,421.221588 1068.24951,417.049297 1068.24951,412.637154 C1068.24951,408.225011 1068.34551,403.956806 1068.53751,399.832411 C1068.82551,393.501945 1070.16948,387.890934 1072.56948,382.999209 C1074.96947,378.107485 1078.25742,373.983152 1082.43341,370.626087 C1086.6094,367.269021 1091.57732,364.727281 1097.33731,363.000791 C1103.0973,361.2743 1109.52919,360.411067 1116.63318,360.411067 C1123.64116,360.411067 1130.04906,361.2743 1135.85705,363.000791 C1141.66504,364.727281 1146.65695,367.269021 1150.83294,370.626087 C1155.00894,373.983152 1158.29688,378.107485 1160.69688,382.999209 C1163.09687,387.890934 1164.44085,393.501945 1164.72885,399.832411 Z M1105.97725,424.290909 C1106.16925,428.319388 1107.20123,431.268765 1109.07323,433.13913 C1110.94523,435.009496 1113.46518,435.944664 1116.63318,435.944664 C1119.80117,435.944664 1122.32113,435.009496 1124.19313,433.13913 C1126.06512,431.268765 1127.09711,428.319388 1127.2891,424.290909 C1127.5771,416.138036 1127.5771,408.081199 1127.2891,400.120158 C1127.09711,396.091679 1126.04112,393.142302 1124.12113,391.271937 C1122.20113,389.401572 1119.70517,388.466403 1116.63318,388.466403 C1113.56118,388.466403 1111.06523,389.401572 1109.14523,391.271937 C1107.22523,393.142302 1106.16925,396.091679 1105.97725,400.120158 C1105.68925,408.081199 1105.68925,416.138036 1105.97725,424.290909 Z M1235.28837,400.264032 L1256.16822,365.734387 C1256.45622,365.254807 1257.08021,364.487489 1258.04021,363.432411 C1259.00021,362.377333 1260.44019,361.849802 1262.36018,361.849802 L1285.11203,361.849802 C1286.16802,361.849802 1287.08001,362.233461 1287.84801,363.000791 C1288.61601,363.76812 1289,364.67931 1289,365.734387 L1289,458.67668 C1289,459.731758 1288.61601,460.642947 1287.84801,461.410277 C1287.08001,462.177606 1286.16802,462.561265 1285.11203,462.561265 L1259.0482,462.561265 C1257.99221,462.561265 1257.08022,462.177606 1256.31222,461.410277 C1255.54422,460.642947 1255.16023,459.731758 1255.16023,458.67668 L1255.16023,419.255336 L1245.6563,434.793676 C1245.1763,435.561005 1244.52831,436.352302 1243.71231,437.167589 C1242.89631,437.982876 1241.76833,438.390514 1240.32833,438.390514 L1230.2484,438.390514 C1228.8084,438.390514 1227.68042,437.982876 1226.86442,437.167589 C1226.04843,436.352302 1225.40044,435.561005 1224.92044,434.793676 L1215.4165,419.255336 L1215.4165,458.67668 C1215.4165,459.731758 1215.03251,460.642947 1214.26451,461.410277 C1213.49651,462.177606 1212.58453,462.561265 1211.52853,462.561265 L1185.46471,462.561265 C1184.40871,462.561265 1183.49672,462.177606 1182.72873,461.410277 C1181.96073,460.642947 1181.57673,459.731758 1181.57673,458.67668 L1181.57673,365.734387 C1181.57673,364.67931 1181.96073,363.76812 1182.72873,363.000791 C1183.49672,362.233461 1184.40871,361.849802 1185.46471,361.849802 L1208.21655,361.849802 C1210.13655,361.849802 1211.57652,362.377333 1212.53652,363.432411 C1213.49652,364.487489 1214.12051,365.254807 1214.40851,365.734387 L1235.28837,400.264032 Z" id="MEET-THE-ENGINEER.CO" fill="#FFFFFF"></path>
    </g>
</svg>